<?xml version="1.0" encoding="UTF-8" standalone="no"?><!DOCTYPE svg PUBLIC "-//W3C//DTD SVG 1.1//EN" "http://www.w3.org/Graphics/SVG/1.1/DTD/svg11.dtd"><svg width="100%" height="100%" viewBox="0 0 485 485" version="1.1" xmlns="http://www.w3.org/2000/svg" xmlns:xlink="http://www.w3.org/1999/xlink" xml:space="preserve" xmlns:serif="http://www.serif.com/" style="fill-rule:evenodd;clip-rule:evenodd;stroke-linejoin:round;stroke-miterlimit:2;"><path d="M0,242.188c0,133.754 108.433,242.187 242.187,242.187c133.755,0 242.188,-108.433 242.188,-242.187c-0,-133.755 -108.433,-242.188 -242.188,-242.188c-133.754,0 -242.187,108.433 -242.187,242.188Z" style="fill:#e5dbd6;fill-rule:nonzero;"/><path d="M87.5,382.813c0,41.42 40.575,75 90.625,75c50.05,-0 90.625,-33.58 90.625,-75c-0,-41.417 -40.575,-75 -90.625,-75c-50.05,-0 -90.625,33.583 -90.625,75Z" style="fill:#f2f3ee;fill-rule:nonzero;"/><path d="M40.625,145.313c0,-19.517 5.604,-37.684 15.146,-53.163c1.633,-3.192 3.487,-6.904 5.396,-10.783c44.362,-49.896 109.004,-81.367 181.02,-81.367c73.413,0 139.146,32.708 183.567,84.296c4.467,8.979 7.058,19.058 7.058,29.767c0,37.099 -30.079,67.187 -67.187,67.187c-3.192,0 -4.296,-0.196 -9.379,-0.733c-34.113,-1.609 -65.642,5.337 -89.579,15.833c-27.825,12.204 -58.017,33.742 -91.484,44.933c-1.908,0.663 -3.845,1.254 -5.812,1.8c-1.525,0.442 -2.967,0.788 -4.408,1.138c-0.934,0.212 -1.842,0.475 -2.78,0.667c-2.458,0.508 -4.812,0.895 -6.975,1.075c-0.012,-0.005 -0.029,-0.005 -0.045,-0.009c-4.259,0.542 -8.571,0.921 -12.975,0.921c-56.092,0 -101.563,-45.471 -101.563,-101.562Z" style="fill:#f0e8e6;fill-rule:nonzero;"/><path d="M157.721,76.954c28.208,-16.592 36.762,-32.217 39.042,-37.867c6.883,-20.741 29.45,-36.458 57.129,-38.762c68.675,3.275 129.821,35.142 171.862,83.971c4.467,8.979 7.058,19.058 7.058,29.767c0,37.099 -30.079,67.187 -67.187,67.187c-3.192,0 -4.296,-0.196 -9.379,-0.733c-34.113,-1.609 -65.642,5.337 -89.579,15.833c-27.825,12.204 -58.017,33.742 -91.484,44.933c-1.908,0.663 -3.845,1.254 -5.812,1.8c-1.525,0.442 -2.967,0.788 -4.408,1.138c-0.934,0.212 -1.842,0.475 -2.78,0.667c-0.679,0.141 -1.27,0.175 -1.929,0.295c8.625,-8.083 10.813,-17.27 10.45,-27.35c-3.158,-31.1 -21.104,-52.721 -29.604,-61.371c-0.958,-0.862 -1.871,-1.762 -2.758,-2.687c-1.063,-0.975 -1.721,-1.529 -1.721,-1.529c-0,-0 0.012,-0.179 0.017,-0.259c-7.48,-8.47 -11.896,-18.745 -11.896,-29.854c-0,-19.287 13.275,-36.096 32.979,-45.179Z" style="fill:#f2f3ee;fill-rule:nonzero;"/><path d="M373.279,95.533c-5.35,23.121 -38.829,35.121 -74.771,26.796c-35.941,-8.321 -60.733,-33.812 -55.383,-56.925c5.358,-23.117 38.829,-35.117 74.771,-26.796c35.937,8.317 60.737,33.804 55.383,56.925Z" style="fill:#fff;fill-rule:nonzero;"/></svg>