<?xml version="1.0" ?><svg style="enable-background:new 0 0 512 512;" version="1.1" viewBox="0 0 512 512" xml:space="preserve" xmlns="http://www.w3.org/2000/svg" xmlns:xlink="http://www.w3.org/1999/xlink"><g id="_x34__x2C__Error_x2C__notice_x2C__warning_x2C__virus"><g id="XMLID_4175_"><g id="XMLID_4176_"><path d="M462.99,318.63c14.43,23.16,15.16,52.36,1.92,76.2     c-13.24,23.85-38.41,38.67-65.69,38.67H127.78c-27.28,0-52.45-14.82-65.69-38.67c-13.24-23.84-12.51-53.04,1.92-76.2     l135.71-217.86c13.82-22.17,37.66-35.41,63.78-35.41s49.96,13.24,63.78,35.41L462.99,318.63z" id="XMLID_4241_" style="fill:#FFD400;"/><circle cx="443.5" cy="103.5" id="XMLID_87_" r="35" style="fill:#07CC66;"/><circle cx="71" cy="196" id="XMLID_86_" r="27.5" style="fill:#07CC66;"/><path d="M424.8,342.43c12.5,20.07-1.93,46.07-25.58,46.07H127.78     c-23.65,0-38.08-26-25.58-46.07l135.72-217.87c11.8-18.93,39.36-18.93,51.16,0L424.8,342.43z" id="XMLID_4229_" style="fill:#3F4751;"/><path d="M277.64,324.36c3.62,3.62,5.86,8.62,5.86,14.14s-2.24,10.52-5.86,14.14     c-3.62,3.62-8.62,5.86-14.14,5.86c-11.05,0-20-8.95-20-20c0-5.52,2.24-10.52,5.86-14.14c3.62-3.62,8.62-5.86,14.14-5.86     S274.02,320.74,277.64,324.36z" id="XMLID_84_" style="fill:#FFD400;"/><path d="M283.5,188.5v85c0,11.05-8.95,20-20,20s-20-8.95-20-20v-85c0-11.05,8.95-20,20-20     c5.52,0,10.52,2.24,14.14,5.86C281.26,177.98,283.5,182.98,283.5,188.5z" id="XMLID_83_" style="fill:#FFD400;"/><circle cx="436" cy="196" id="XMLID_82_" r="7.5" style="fill:#D94556;"/><circle cx="366" cy="71" id="XMLID_81_" r="7.5" style="fill:#D94556;"/><circle cx="336" cy="471" id="XMLID_80_" r="7.5" style="fill:#D94556;"/><circle cx="181" cy="41" id="XMLID_79_" r="7.5" style="fill:#D94556;"/><circle cx="41" cy="441" id="XMLID_78_" r="7.5" style="fill:#D94556;"/></g></g></g><g id="Layer_1"/></svg>