<?xml version="1.0" encoding="UTF-8" standalone="no"?><!DOCTYPE svg PUBLIC "-//W3C//DTD SVG 1.1//EN" "http://www.w3.org/Graphics/SVG/1.1/DTD/svg11.dtd"><svg width="100%" height="100%" viewBox="0 0 686 600" version="1.1" xmlns="http://www.w3.org/2000/svg" xmlns:xlink="http://www.w3.org/1999/xlink" xml:space="preserve" xmlns:serif="http://www.serif.com/" style="fill-rule:evenodd;clip-rule:evenodd;stroke-linejoin:round;stroke-miterlimit:2;"><path d="M384.679,150.546c-1.367,-0 -2.716,0.087 -4.05,0.204l0,-0.008c-0.825,0.071 -1.654,0.129 -2.492,0.129c-15.154,-0 -27.508,-11.833 -28.399,-26.754c0.004,-0.542 0.037,-1.08 0.037,-1.625c-0,-67.65 -54.837,-122.492 -122.487,-122.492c-67.646,0 -122.488,54.842 -122.488,122.492c0,67.645 54.842,122.487 122.488,122.487c0.7,0 1.395,-0.037 2.1,-0.05l-0,0.05l154.129,0l-0,-0.058c0.391,0.008 0.771,0.058 1.162,0.058c26.075,0 47.217,-21.137 47.217,-47.216c-0,-26.075 -21.142,-47.217 -47.217,-47.217Z" style="fill:#f3f3f4;fill-rule:nonzero;"/><path d="M399.383,227.238c0,9.795 -7.941,17.741 -17.745,17.741l-160.901,0c-9.799,0 -17.741,-7.946 -17.741,-17.741c-0,-9.801 7.942,-17.746 17.741,-17.746l160.901,-0c9.804,-0 17.745,7.945 17.745,17.746Z" style="fill:#edeae9;fill-rule:nonzero;"/><path d="M126.188,80.762c-0,-10.729 2.812,-20.708 7.604,-29.216c0.825,-1.759 1.758,-3.792 2.716,-5.933c22.292,-27.417 54.775,-44.713 90.963,-44.713c36.896,0 69.921,17.971 92.242,46.333c2.245,4.929 3.545,10.463 3.545,16.359c0,20.387 -15.112,36.921 -33.758,36.921c-1.604,-0 -2.163,-0.105 -4.713,-0.396c-17.145,-0.892 -32.983,2.925 -45.012,8.695c-13.983,6.709 -29.158,18.546 -45.971,24.7c-0.958,0.359 -1.937,0.688 -2.921,0.984c-0.766,0.246 -1.491,0.437 -2.221,0.629c-0.47,0.121 -0.92,0.258 -1.391,0.367c-1.238,0.275 -2.421,0.491 -3.508,0.591c-0.005,-0.004 -0.013,-0.004 -0.026,-0.008c-2.137,0.3 -4.304,0.513 -6.516,0.513c-28.179,-0 -51.033,-24.996 -51.033,-55.826Z" style="fill:#f9fafa;fill-rule:nonzero;"/><path d="M185.025,43.196c14.175,-9.121 18.475,-17.708 19.625,-20.813c3.454,-11.4 14.792,-20.041 28.704,-21.308c34.508,1.8 65.234,19.317 86.359,46.158c2.245,4.929 3.545,10.463 3.545,16.359c0,20.387 -15.112,36.921 -33.758,36.921c-1.604,-0 -2.163,-0.105 -4.713,-0.396c-17.145,-0.892 -32.983,2.925 -45.012,8.695c-13.983,6.709 -29.158,18.546 -45.971,24.7c-0.958,0.359 -1.937,0.688 -2.921,0.984c-0.766,0.246 -1.491,0.437 -2.221,0.629c-0.47,0.121 -0.92,0.258 -1.391,0.367c-0.346,0.075 -0.642,0.096 -0.971,0.158c4.333,-4.442 5.433,-9.488 5.25,-15.025c-1.587,-17.096 -10.6,-28.979 -14.875,-33.738c-0.479,-0.47 -0.937,-0.966 -1.392,-1.47c-0.529,-0.534 -0.858,-0.846 -0.858,-0.846c-0,-0 0.004,-0.092 0.004,-0.142c-3.754,-4.654 -5.975,-10.3 -5.975,-16.404c0,-10.604 6.671,-19.842 16.571,-24.829Z" style="fill:#fdfdfd;fill-rule:nonzero;"/><path d="M293.346,53.4c-2.692,12.713 -19.513,19.304 -37.567,14.729c-18.062,-4.571 -30.525,-18.579 -27.833,-31.287c2.687,-12.7 19.508,-19.296 37.567,-14.725c18.062,4.575 30.525,18.579 27.833,31.283Z" style="fill:#fff;fill-rule:nonzero;"/><path d="M685.933,364.454c0,55.229 -44.775,100.009 -100.004,100.009c-55.229,-0 -100,-44.78 -100,-100.009c0,-55.229 44.771,-100 100,-100c55.229,0 100.004,44.771 100.004,100Z" style="fill:#f3f3f4;fill-rule:nonzero;"/><path d="M151.563,276.121c-0.001,133.758 108.433,242.187 242.183,242.187c133.762,0 242.187,-108.429 242.187,-242.187c0,-133.754 -108.425,-242.188 -242.187,-242.188c-133.75,0 -242.183,108.434 -242.183,242.188Z" style="fill:#e5dbd6;fill-rule:nonzero;"/><path d="M239.063,416.746c-0.001,41.425 40.575,75 90.624,75c50.046,-0 90.621,-33.575 90.621,-75c0,-41.413 -40.575,-75 -90.62,-75c-50.05,-0 -90.625,33.587 -90.625,75Z" style="fill:#f2f3ee;fill-rule:nonzero;"/><path d="M192.188,179.246c-0.001,-19.513 5.599,-37.679 15.141,-53.154c1.634,-3.196 3.492,-6.909 5.4,-10.788c44.363,-49.9 109.004,-81.371 181.017,-81.371c73.413,0 139.15,32.713 183.566,84.3c4.467,8.98 7.059,19.055 7.059,29.763c-0,37.108 -30.079,67.187 -67.188,67.187c-3.191,0 -4.295,-0.195 -9.379,-0.729c-34.108,-1.612 -65.637,5.338 -89.575,15.834c-27.829,12.199 -58.021,33.741 -91.487,44.933c-1.909,0.658 -3.842,1.25 -5.809,1.8c-1.525,0.442 -2.966,0.787 -4.412,1.137c-0.929,0.209 -1.838,0.475 -2.779,0.667c-2.459,0.504 -4.809,0.896 -6.971,1.079c-0.017,-0.004 -0.029,-0.004 -0.046,-0.012c-4.262,0.545 -8.571,0.916 -12.975,0.916c-56.092,0 -101.562,-45.466 -101.562,-101.562Z" style="fill:#f0e8e6;fill-rule:nonzero;"/><path d="M309.283,110.888c28.209,-16.592 36.759,-32.209 39.046,-37.867c6.884,-20.742 29.446,-36.454 57.129,-38.763c68.667,3.284 129.817,35.146 171.854,83.975c4.467,8.98 7.059,19.055 7.059,29.763c-0,37.108 -30.079,67.187 -67.188,67.187c-3.191,0 -4.295,-0.195 -9.379,-0.729c-34.108,-1.612 -65.637,5.338 -89.575,15.834c-27.829,12.199 -58.021,33.741 -91.487,44.933c-1.909,0.658 -3.842,1.25 -5.809,1.8c-1.525,0.442 -2.966,0.787 -4.412,1.137c-0.929,0.209 -1.838,0.475 -2.779,0.667c-0.675,0.138 -1.267,0.175 -1.929,0.296c8.625,-8.083 10.816,-17.271 10.45,-27.346c-3.155,-31.104 -21.101,-52.729 -29.6,-61.375c-0.959,-0.867 -1.875,-1.762 -2.759,-2.683c-1.062,-0.979 -1.721,-1.538 -1.721,-1.538c0,0 0.009,-0.175 0.017,-0.258c-7.483,-8.471 -11.896,-18.742 -11.896,-29.85c0,-19.288 13.275,-36.1 32.979,-45.183Z" style="fill:#f2f3ee;fill-rule:nonzero;"/><path d="M524.842,129.467c-5.354,23.121 -38.825,35.125 -74.771,26.8c-35.938,-8.321 -60.738,-33.813 -55.379,-56.925c5.35,-23.121 38.825,-35.117 74.762,-26.8c35.938,8.316 60.738,33.804 55.388,56.925Z" style="fill:#fff;fill-rule:nonzero;"/><path d="M546.354,458.204c0,73.638 -59.696,133.342 -133.337,133.342c-73.642,-0 -133.33,-59.704 -133.33,-133.342c0,-73.637 59.688,-133.329 133.33,-133.329c73.641,0 133.337,59.692 133.337,133.329Z" style="fill:#cabdb8;fill-rule:nonzero;"/><path d="M426.042,456.121c-2.079,-0 -4.125,0.137 -6.167,0.308l0,-0.008c-1.25,0.112 -2.513,0.192 -3.796,0.192c-23.058,-0 -41.862,-18.017 -43.233,-40.73c0.016,-0.825 0.071,-1.641 0.071,-2.462c-0,-102.979 -83.484,-186.467 -186.463,-186.467c-102.979,0 -186.454,83.488 -186.454,186.467c-0,102.975 83.475,186.454 186.454,186.454c1.075,0 2.125,-0.062 3.192,-0.079l-0,0.079l234.637,0l0,-0.087c0.588,0.012 1.167,0.087 1.759,0.087c39.696,0 71.879,-32.179 71.879,-71.875c-0,-39.7 -32.183,-71.879 -71.879,-71.879Z" style="fill:#f3f3f4;fill-rule:nonzero;"/><path d="M448.429,572.867c0,14.916 -12.087,27.008 -27.004,27.008l-244.946,0c-14.916,0 -27.004,-12.092 -27.004,-27.008c0,-14.917 12.088,-27.009 27.004,-27.009l244.946,0c14.917,0 27.004,12.092 27.004,27.009Z" style="fill:#edeae9;fill-rule:nonzero;"/><path d="M32.554,349.892c0,-16.33 4.284,-31.525 11.58,-44.475c1.258,-2.675 2.67,-5.775 4.129,-9.03c33.937,-41.741 83.383,-68.07 138.471,-68.07c56.158,-0 106.441,27.366 140.412,70.529c3.425,7.508 5.408,15.942 5.408,24.904c0,31.042 -23.008,56.204 -51.391,56.204c-2.446,0 -3.292,-0.154 -7.18,-0.6c-26.091,-1.354 -50.212,4.454 -68.52,13.242c-21.284,10.208 -44.38,28.229 -69.98,37.596c-1.462,0.546 -2.945,1.041 -4.441,1.504c-1.175,0.367 -2.279,0.658 -3.384,0.946c-0.712,0.187 -1.404,0.4 -2.125,0.562c-1.879,0.421 -3.679,0.746 -5.333,0.9c-0.012,-0.004 -0.017,-0.008 -0.038,-0.008c-3.249,0.458 -6.545,0.767 -9.92,0.767c-42.904,-0 -77.688,-38.042 -77.688,-84.971Z" style="fill:#f9fafa;fill-rule:nonzero;"/><path d="M122.125,292.7c21.575,-13.883 28.117,-26.954 29.871,-31.683c5.258,-17.35 22.521,-30.5 43.692,-32.434c52.533,2.746 99.312,29.409 131.458,70.263c3.425,7.508 5.408,15.942 5.408,24.904c0,31.042 -23.008,56.204 -51.391,56.204c-2.446,0 -3.292,-0.154 -7.18,-0.6c-26.091,-1.354 -50.212,4.454 -68.52,13.242c-21.284,10.208 -44.38,28.229 -69.98,37.596c-1.462,0.546 -2.945,1.041 -4.441,1.504c-1.175,0.367 -2.279,0.658 -3.384,0.946c-0.712,0.187 -1.404,0.4 -2.125,0.562c-0.516,0.117 -0.97,0.142 -1.47,0.242c6.6,-6.763 8.27,-14.446 7.991,-22.875c-2.416,-26.025 -16.146,-44.117 -22.646,-51.346c-0.729,-0.729 -1.433,-1.479 -2.112,-2.246c-0.808,-0.821 -1.308,-1.283 -1.308,-1.283c-0,-0 0.004,-0.146 0.008,-0.221c-5.717,-7.087 -9.1,-15.683 -9.1,-24.975c-0,-16.138 10.15,-30.2 25.229,-37.8Z" style="fill:#fdfdfd;fill-rule:nonzero;"/><path d="M287.017,308.242c-4.096,19.346 -29.709,29.379 -57.196,22.421c-27.492,-6.963 -46.463,-28.288 -42.367,-47.621c4.096,-19.346 29.7,-29.384 57.192,-22.421c27.487,6.958 46.458,28.287 42.371,47.621Z" style="fill:#fff;fill-rule:nonzero;"/></svg>