<?xml version="1.0" encoding="UTF-8" standalone="no"?><!DOCTYPE svg PUBLIC "-//W3C//DTD SVG 1.1//EN" "http://www.w3.org/Graphics/SVG/1.1/DTD/svg11.dtd"><svg width="100%" height="100%" viewBox="0 0 2725 3034" version="1.1" xmlns="http://www.w3.org/2000/svg" xmlns:xlink="http://www.w3.org/1999/xlink" xml:space="preserve" xmlns:serif="http://www.serif.com/" style="fill-rule:evenodd;clip-rule:evenodd;stroke-linejoin:round;stroke-miterlimit:2;"><path d="M377.24,2438.81c32.404,64.688 111.109,90.866 175.797,58.461c64.681,-32.396 90.856,-111.1 58.46,-175.789c-61.815,-123.417 -44.299,-124.313 -175.797,-58.47c-64.689,32.404 -90.856,111.109 -58.46,175.798Z" style="fill:#1bb2e7;fill-rule:nonzero;"/><path d="M530.491,2305.17c-1.139,-22.375 -23.969,-39.401 -51,-38.021c-27.041,1.362 -48.052,20.605 -46.921,42.97c1.138,22.383 23.969,39.417 51.009,38.055c27.039,-1.372 48.042,-20.623 46.912,-43.004Z" style="fill:#64cbe4;fill-rule:nonzero;"/><path d="M605.417,2417.11c0.543,10.547 -1.985,20.519 -6.727,29.136c-0.793,1.768 -1.691,3.819 -2.623,5.976c-22.598,28.161 -56.659,46.93 -95.565,48.888c-39.66,2.01 -76.065,-13.852 -101.467,-40.512c-2.656,-4.726 -4.322,-10.092 -4.622,-15.896c-1.01,-20.036 14.411,-37.105 34.456,-38.116c1.726,-0.095 2.328,-0.033 5.09,0.139c18.475,-0.068 35.319,-4.684 47.954,-11.006c14.706,-7.357 30.421,-19.829 48.199,-26.772c1.008,-0.406 2.043,-0.784 3.086,-1.138c0.812,-0.276 1.58,-0.51 2.356,-0.733c0.49,-0.147 0.975,-0.302 1.474,-0.449c1.32,-0.319 2.579,-0.605 3.744,-0.768c0.009,0.008 0.017,0.008 0.025,0.008c2.294,-0.414 4.598,-0.725 6.987,-0.836c30.301,-1.545 56.097,21.778 57.633,52.079Z" style="fill:#33c4f0;fill-rule:nonzero;"/><path d="M543.652,2457.19c-14.749,9.721 -18.931,18.364 -20.009,21.469c-3.14,11.368 -14.871,20.45 -29.724,22.441c-37.086,0.114 -70.907,-15.403 -94.892,-40.554c-2.648,-4.728 -4.322,-10.083 -4.614,-15.844c-1.01,-20.003 14.376,-37.037 34.371,-38.045c1.716,-0.071 2.32,-0.011 5.079,0.136c18.416,-0.051 35.216,-4.657 47.827,-10.962c14.662,-7.339 30.352,-19.769 48.068,-26.712c1.018,-0.406 2.043,-0.776 3.088,-1.13c0.818,-0.267 1.578,-0.499 2.346,-0.725c0.498,-0.145 0.975,-0.3 1.473,-0.43c0.363,-0.104 0.692,-0.139 1.035,-0.216c-4.423,4.59 -5.346,9.599 -4.889,15.008c2.552,16.68 12.818,27.842 17.63,32.276c0.543,0.43 1.06,0.888 1.561,1.362c0.594,0.501 0.965,0.785 0.965,0.785l-0,0.138c4.262,4.356 6.926,9.773 7.228,15.766c0.526,10.385 -6.174,19.812 -16.543,25.237Z" style="fill:#3fc3d7;fill-rule:nonzero;"/><path d="M427.005,2453.05c2.244,-12.592 19.96,-19.975 39.548,-16.473c19.587,3.5 33.647,16.56 31.386,29.169c-2.242,12.602 -19.959,19.986 -39.554,16.484c-19.589,-3.52 -33.648,-16.561 -31.38,-29.18Z" style="fill:#64cbe4;fill-rule:nonzero;"/><path d="M1656.99,2589.19c41.077,81.995 140.855,115.18 222.86,74.128c82.005,-41.075 115.193,-140.878 74.118,-222.871c-78.369,-156.465 -56.175,-157.6 -222.861,-74.117c-82.005,41.075 -115.18,140.845 -74.117,222.86Z" style="fill:#1bb2e7;fill-rule:nonzero;"/><path d="M1853.84,2418.88c-1.438,-28.353 -30.394,-49.942 -64.664,-48.212c-34.271,1.751 -60.904,26.123 -59.466,54.504c1.438,28.364 30.384,49.955 64.665,48.225c34.27,-1.751 60.893,-26.133 59.465,-54.517Z" style="fill:#64cbe4;fill-rule:nonzero;"/><path d="M1946.26,2561.68c0.677,13.369 -2.521,26.008 -8.533,36.939c-1,2.23 -2.146,4.824 -3.314,7.564c-28.653,35.699 -71.834,59.486 -121.152,61.977c-50.275,2.553 -96.437,-17.568 -128.631,-51.348c-3.366,-6.012 -5.492,-12.817 -5.877,-20.151c-1.273,-25.416 18.285,-47.067 43.688,-48.35c2.198,-0.103 2.961,-0.01 6.462,0.187c23.412,-0.072 44.764,-5.929 60.789,-13.951c18.64,-9.316 38.574,-25.123 61.101,-33.948c1.283,-0.51 2.586,-0.968 3.919,-1.418c1.02,-0.375 2,-0.655 2.98,-0.925c0.626,-0.188 1.238,-0.398 1.876,-0.563c1.666,-0.428 3.261,-0.783 4.739,-0.98c0.013,-0 0.023,-0 0.033,0.01c2.895,-0.543 5.834,-0.928 8.847,-1.083c38.427,-1.938 71.134,27.611 73.073,66.04Z" style="fill:#33c4f0;fill-rule:nonzero;"/><path d="M1867.95,2612.49c-18.694,12.316 -23.998,23.267 -25.363,27.226c-3.979,14.402 -18.848,25.915 -37.689,28.446c-47.014,0.125 -89.88,-19.536 -120.287,-51.431c-3.366,-5.962 -5.489,-12.766 -5.854,-20.091c-1.283,-25.34 18.223,-46.929 43.586,-48.202c2.168,-0.125 2.928,-0.03 6.429,0.177c23.35,-0.082 44.639,-5.919 60.644,-13.921c18.578,-9.303 38.459,-25.058 60.923,-33.843c1.283,-0.52 2.596,-1 3.909,-1.438c1.04,-0.355 2.011,-0.645 2.978,-0.928c0.626,-0.177 1.241,-0.385 1.876,-0.553c0.46,-0.115 0.865,-0.165 1.313,-0.28c-5.614,5.845 -6.792,12.192 -6.2,19.036c3.231,21.154 16.245,35.293 22.342,40.91c0.698,0.563 1.343,1.145 1.978,1.741c0.751,0.645 1.231,0.997 1.231,0.997l-0,0.178c5.406,5.524 8.762,12.401 9.158,19.976c0.657,13.182 -7.825,25.1 -20.974,32Z" style="fill:#3fc3d7;fill-rule:nonzero;"/><path d="M1720.08,2607.25c2.853,-15.985 25.308,-25.34 50.138,-20.881c24.832,4.439 42.66,20.986 39.804,36.979c-2.865,15.955 -25.31,25.31 -50.15,20.871c-24.84,-4.439 -42.658,-20.996 -39.792,-36.969Z" style="fill:#64cbe4;fill-rule:nonzero;"/><path d="M972.626,2732.62c33.541,66.956 115.013,94.05 181.96,60.509c66.955,-33.531 94.05,-114.993 60.508,-181.95c-63.977,-127.749 -45.854,-128.683 -181.95,-60.496c-66.945,33.508 -94.049,114.993 -60.518,181.937Z" style="fill:#1bb2e7;fill-rule:nonzero;"/><path d="M1122.86,2597.27c-1.166,-23.182 -24.804,-40.797 -52.789,-39.394c-27.983,1.43 -49.723,21.345 -48.547,44.505c1.178,23.16 24.804,40.784 52.789,39.374c27.996,-1.41 49.725,-21.348 48.547,-44.485Z" style="fill:#64cbe4;fill-rule:nonzero;"/><path d="M1208.81,2710.16c0.549,10.914 -2.069,21.231 -6.956,30.159c-0.83,1.825 -1.761,3.955 -2.726,6.172c-23.384,29.161 -58.643,48.59 -98.918,50.616c-41.049,2.099 -78.726,-14.349 -105.016,-41.943c-2.756,-4.899 -4.495,-10.434 -4.792,-16.446c-1.039,-20.742 14.931,-38.409 35.663,-39.458c1.792,-0.097 2.418,-0.01 5.271,0.158c19.118,-0.084 36.552,-4.856 49.649,-11.41c15.206,-7.604 31.485,-20.497 49.872,-27.71c1.049,-0.402 2.11,-0.804 3.192,-1.166c0.858,-0.297 1.644,-0.519 2.438,-0.763c0.509,-0.148 1.018,-0.318 1.537,-0.446c1.359,-0.361 2.662,-0.636 3.861,-0.806c0.021,0.012 0.021,0.012 0.031,0.012c2.377,-0.435 4.774,-0.753 7.233,-0.88c31.367,-1.591 58.07,22.554 59.661,53.911Z" style="fill:#33c4f0;fill-rule:nonzero;"/><path d="M1144.86,2751.65c-15.26,10.063 -19.586,19.004 -20.701,22.226c-3.245,11.76 -15.395,21.146 -30.762,23.213c-38.387,0.127 -73.391,-15.927 -98.228,-41.97c-2.736,-4.889 -4.475,-10.425 -4.772,-16.396c-1.039,-20.698 14.878,-38.336 35.589,-39.364c1.769,-0.094 2.395,-0.02 5.248,0.138c19.068,-0.064 36.448,-4.836 49.512,-11.356c15.176,-7.592 31.411,-20.457 49.755,-27.634c1.051,-0.436 2.11,-0.817 3.182,-1.189c0.847,-0.265 1.634,-0.519 2.428,-0.743c0.509,-0.148 1.007,-0.318 1.539,-0.446c0.369,-0.117 0.71,-0.137 1.059,-0.244c-4.581,4.772 -5.546,9.949 -5.047,15.558c2.639,17.253 13.255,28.812 18.238,33.404c0.562,0.445 1.094,0.934 1.614,1.41c0.626,0.509 1.007,0.817 1.007,0.817c0,-0 -0.012,0.094 -0.012,0.127c4.423,4.528 7.159,10.127 7.487,16.331c0.542,10.753 -6.393,20.508 -17.136,26.118Z" style="fill:#3fc3d7;fill-rule:nonzero;"/><path d="M1024.13,2747.36c2.333,-13.033 20.658,-20.668 40.944,-17.041c20.264,3.606 34.824,17.146 32.493,30.189c-2.334,13.056 -20.658,20.668 -40.945,17.042c-20.276,-3.617 -34.824,-17.156 -32.492,-30.19Z" style="fill:#64cbe4;fill-rule:nonzero;"/><path d="M2724.62,1269.83c-0,334.846 -271.459,606.304 -606.3,606.304c-334.863,0 -606.321,-271.458 -606.321,-606.304c-0,-334.858 271.458,-606.317 606.321,-606.317c334.841,0 606.3,271.459 606.3,606.317Z" style="fill:#e8f0f7;fill-rule:nonzero;"/><path d="M2281.09,1226.93c-11.146,0 -22.117,0.729 -33.017,1.629l0,-0.016c-6.667,0.608 -13.458,1.025 -20.333,1.025c-123.455,-0 -224.13,-96.425 -231.442,-218.054c0.071,-4.43 0.35,-8.788 0.35,-13.213c0,-551.354 -446.979,-998.3 -998.317,-998.3c-551.371,0 -998.333,446.946 -998.333,998.3c0,551.338 446.963,998.333 998.333,998.333c5.73,0 11.355,-0.35 17.067,-0.416l0,0.416l1256.27,0l-0,-0.487c3.141,0.104 6.233,0.487 9.425,0.487c212.52,0 384.845,-172.291 384.845,-384.862c0,-212.533 -172.325,-384.842 -384.845,-384.842Z" style="fill:#f3f7f9;fill-rule:nonzero;"/><path d="M2400.97,1852c-0,79.862 -64.754,144.637 -144.617,144.637l-1311.44,0c-79.88,0 -144.6,-64.775 -144.6,-144.637c-0,-79.842 64.72,-144.583 144.6,-144.583l1311.44,-0c79.863,-0 144.617,64.741 144.617,144.583Z" style="fill:#e7f3fb;fill-rule:nonzero;"/><path d="M174.304,658.196c0,-87.45 22.954,-168.804 62,-238.142c6.717,-14.308 14.321,-30.921 22.117,-48.316c181.717,-223.492 446.442,-364.48 741.404,-364.48c300.679,0 569.879,146.509 751.771,377.638c18.317,40.175 28.942,85.346 28.942,133.3c-0,166.25 -123.192,300.954 -275.155,300.954c-13.108,0 -17.641,-0.85 -38.437,-3.212c-139.688,-7.259 -268.838,23.837 -366.875,70.92c-113.942,54.617 -237.604,151.113 -374.671,201.234c-7.829,2.966 -15.767,5.625 -23.804,8.087c-6.25,1.963 -12.15,3.492 -18.071,5.088c-3.837,0.937 -7.517,2.1 -11.371,2.97c-10.054,2.255 -19.704,3.992 -28.579,4.842c-0.067,0 -0.104,-0.033 -0.171,-0.067c-17.45,2.463 -35.104,4.167 -53.142,4.167c-229.708,0 -415.958,-203.733 -415.958,-454.983Z" style="fill:#f9fafa;fill-rule:nonzero;"/><path d="M653.888,351.996c115.52,-74.358 150.558,-144.304 159.916,-169.634c28.159,-92.933 120.588,-163.316 233.954,-173.683c281.271,14.709 531.705,157.45 703.838,376.217c18.317,40.175 28.942,85.346 28.942,133.3c-0,166.25 -123.192,300.954 -275.155,300.954c-13.108,0 -17.641,-0.85 -38.437,-3.212c-139.688,-7.259 -268.838,23.837 -366.875,70.92c-113.942,54.617 -237.604,151.113 -374.671,201.234c-7.829,2.966 -15.767,5.625 -23.804,8.087c-6.25,1.963 -12.15,3.492 -18.071,5.088c-3.837,0.937 -7.517,2.1 -11.371,2.971c-2.796,0.625 -5.192,0.762 -7.9,1.316c35.329,-36.212 44.288,-77.358 42.813,-122.462c-12.95,-139.359 -86.459,-236.2 -121.267,-274.95c-3.925,-3.871 -7.675,-7.9 -11.321,-12.029c-4.321,-4.359 -7.012,-6.859 -7.012,-6.859c-0,0 0.05,-0.783 0.05,-1.179c-30.609,-37.937 -48.696,-83.958 -48.696,-133.717c-0,-86.408 54.337,-161.683 135.067,-202.362Z" style="fill:#fdfdfd;fill-rule:nonzero;"/><path d="M1536.72,435.192c-21.929,103.575 -159.029,157.325 -306.217,120.033c-147.187,-37.238 -248.766,-151.442 -226.825,-254.963c21.913,-103.595 159.013,-157.345 306.184,-120.037c147.204,37.221 248.766,151.425 226.858,254.967Z" style="fill:#fff;fill-rule:nonzero;"/></svg>