<?xml version="1.0" encoding="UTF-8" standalone="no"?><!DOCTYPE svg PUBLIC "-//W3C//DTD SVG 1.1//EN" "http://www.w3.org/Graphics/SVG/1.1/DTD/svg11.dtd"><svg width="100%" height="100%" viewBox="0 0 485 485" version="1.1" xmlns="http://www.w3.org/2000/svg" xmlns:xlink="http://www.w3.org/1999/xlink" xml:space="preserve" xmlns:serif="http://www.serif.com/" style="fill-rule:evenodd;clip-rule:evenodd;stroke-linejoin:round;stroke-miterlimit:2;"><path d="M0,242.188c0,133.758 108.433,242.187 242.187,242.187c133.755,0 242.188,-108.429 242.188,-242.188c-0,-133.754 -108.433,-242.187 -242.188,-242.187c-133.754,0 -242.187,108.433 -242.187,242.188Z" style="fill:#febc2b;fill-rule:nonzero;"/><path d="M87.5,382.813c0,41.416 40.575,75 90.625,75c50.05,-0 90.625,-33.584 90.625,-75c-0,-41.417 -40.575,-75 -90.625,-75c-50.05,-0 -90.625,33.583 -90.625,75Z" style="fill:#ffc62c;fill-rule:nonzero;"/><path d="M40.625,145.313c0,-19.521 5.604,-37.684 15.146,-53.163c1.633,-3.192 3.487,-6.896 5.396,-10.783c44.362,-49.896 109.004,-81.367 181.02,-81.367c73.413,0 139.146,32.708 183.567,84.3c4.467,8.975 7.058,19.05 7.058,29.763c0,37.108 -30.079,67.187 -67.187,67.187c-3.192,0 -4.296,-0.196 -9.379,-0.725c-34.113,-1.617 -65.642,5.333 -89.579,15.833c-27.825,12.2 -58.017,33.738 -91.484,44.925c-1.908,0.659 -3.845,1.259 -5.812,1.8c-1.525,0.442 -2.967,0.788 -4.408,1.138c-0.934,0.212 -1.842,0.475 -2.78,0.667c-2.458,0.504 -4.812,0.895 -6.975,1.079c-0.012,-0 -0.029,-0.009 -0.045,-0.013c-4.259,0.55 -8.571,0.921 -12.975,0.921c-56.092,-0 -101.563,-45.471 -101.563,-101.563Z" style="fill:#fdd82d;fill-rule:nonzero;"/><path d="M157.721,76.958c28.208,-16.6 36.762,-32.212 39.042,-37.871c6.883,-20.741 29.45,-36.45 57.129,-38.762c68.675,3.275 129.821,35.15 171.862,83.975c4.467,8.975 7.058,19.05 7.058,29.762c0,37.109 -30.079,67.188 -67.187,67.188c-3.192,0 -4.296,-0.196 -9.379,-0.725c-34.113,-1.617 -65.642,5.333 -89.579,15.833c-27.825,12.2 -58.017,33.738 -91.484,44.925c-1.908,0.659 -3.845,1.259 -5.812,1.8c-1.525,0.442 -2.967,0.788 -4.408,1.138c-0.934,0.212 -1.842,0.475 -2.78,0.667c-0.679,0.137 -1.27,0.175 -1.929,0.295c8.625,-8.079 10.813,-17.266 10.45,-27.341c-3.158,-31.113 -21.104,-52.729 -29.604,-61.371c-0.958,-0.875 -1.871,-1.771 -2.758,-2.692c-1.063,-0.979 -1.721,-1.533 -1.721,-1.533c-0,-0 0.012,-0.175 0.017,-0.263c-7.48,-8.466 -11.896,-18.741 -11.896,-29.846c-0,-19.291 13.275,-36.1 32.979,-45.179Z" style="fill:#fce22c;fill-rule:nonzero;"/><path d="M373.279,95.533c-5.35,23.121 -38.829,35.121 -74.771,26.8c-35.941,-8.321 -60.733,-33.808 -55.383,-56.929c5.358,-23.117 38.829,-35.117 74.771,-26.792c35.937,8.317 60.737,33.805 55.383,56.921Z" style="fill:#fcf182;fill-rule:nonzero;"/></svg>