<?xml version="1.0" encoding="UTF-8" standalone="no"?><!DOCTYPE svg PUBLIC "-//W3C//DTD SVG 1.1//EN" "http://www.w3.org/Graphics/SVG/1.1/DTD/svg11.dtd"><svg width="100%" height="100%" viewBox="0 0 640 480" version="1.1" xmlns="http://www.w3.org/2000/svg" xmlns:xlink="http://www.w3.org/1999/xlink" xml:space="preserve" xmlns:serif="http://www.serif.com/" style="fill-rule:evenodd;clip-rule:evenodd;stroke-linejoin:round;stroke-miterlimit:2;"><path d="M547.462,294.463c-2.675,-0 -5.304,0.175 -7.92,0.395l-0,-0.004c-1.605,0.146 -3.23,0.242 -4.88,0.242c-29.629,-0 -53.795,-23.138 -55.55,-52.329c0.021,-1.063 0.088,-2.113 0.088,-3.175c-0,-132.325 -107.275,-239.592 -239.6,-239.592c-132.325,0 -239.6,107.267 -239.6,239.592c-0,132.325 107.275,239.6 239.6,239.6c1.375,-0 2.729,-0.08 4.1,-0.096l-0,0.096l301.504,-0l0,-0.117c0.75,0.025 1.496,0.117 2.258,0.117c51,-0 92.375,-41.35 92.375,-92.367c0,-51.004 -41.375,-92.362 -92.375,-92.362Z" style="fill:#f3f3f4;fill-rule:nonzero;"/><path d="M576.213,444.479c-0,19.167 -15.501,34.713 -34.684,34.713l-314.746,-0c-19.171,-0 -34.704,-15.546 -34.704,-34.713c0,-19.162 15.533,-34.696 34.704,-34.696l314.746,0c19.183,0 34.684,15.534 34.684,34.696Z" style="fill:#edeae9;fill-rule:nonzero;"/><path d="M41.833,157.971c0,-20.992 5.513,-40.517 14.884,-57.154c1.608,-3.438 3.433,-7.421 5.308,-11.596c43.608,-53.638 107.142,-87.475 177.938,-87.475c72.158,-0 136.77,35.162 180.42,90.629c4.396,9.642 6.946,20.483 6.946,31.996c0,39.896 -29.566,72.229 -66.037,72.229c-3.142,0 -4.229,-0.204 -9.221,-0.775c-33.529,-1.742 -64.521,5.725 -88.05,17.021c-27.346,13.112 -57.029,36.266 -89.921,48.296c-1.883,0.716 -3.788,1.35 -5.713,1.941c-1.5,0.471 -2.92,0.842 -4.341,1.221c-0.917,0.225 -1.804,0.508 -2.725,0.717c-2.413,0.541 -4.729,0.958 -6.859,1.158c-0.016,0 -0.029,-0.008 -0.045,-0.016c-4.184,0.595 -8.421,1 -12.755,1c-55.133,-0 -99.829,-48.892 -99.829,-109.192Z" style="fill:#f9fafa;fill-rule:nonzero;"/><path d="M156.937,84.483c27.725,-17.846 36.13,-34.637 38.375,-40.716c6.763,-22.304 28.946,-39.192 56.151,-41.679c67.508,3.524 127.608,37.783 168.92,90.287c4.396,9.642 6.946,20.483 6.946,31.996c0,39.896 -29.566,72.229 -66.037,72.229c-3.142,0 -4.229,-0.204 -9.221,-0.775c-33.529,-1.742 -64.521,5.725 -88.05,17.021c-27.346,13.112 -57.029,36.266 -89.921,48.296c-1.883,0.716 -3.788,1.35 -5.713,1.941c-1.5,0.471 -2.92,0.842 -4.341,1.221c-0.917,0.225 -1.804,0.508 -2.725,0.717c-0.671,0.15 -1.25,0.183 -1.896,0.317c8.479,-8.692 10.625,-18.567 10.271,-29.396c-3.108,-33.442 -20.746,-56.684 -29.1,-65.984c-0.946,-0.929 -1.842,-1.9 -2.717,-2.887c-1.037,-1.046 -1.687,-1.65 -1.687,-1.65c-0,-0 0.012,-0.188 0.012,-0.279c-7.341,-9.109 -11.683,-20.155 -11.683,-32.092c-0,-20.742 13.042,-38.808 32.416,-48.567Z" style="fill:#fdfdfd;fill-rule:nonzero;"/><path d="M368.817,104.446c-5.267,24.862 -38.171,37.758 -73.496,28.812c-35.325,-8.941 -59.7,-36.35 -54.438,-61.196c5.259,-24.858 38.167,-37.762 73.488,-28.808c35.329,8.938 59.7,36.346 54.446,61.192Z" style="fill:#fff;fill-rule:nonzero;"/></svg>