<?xml version="1.0" encoding="UTF-8" standalone="no"?><!DOCTYPE svg PUBLIC "-//W3C//DTD SVG 1.1//EN" "http://www.w3.org/Graphics/SVG/1.1/DTD/svg11.dtd"><svg width="100%" height="100%" viewBox="0 0 686 600" version="1.1" xmlns="http://www.w3.org/2000/svg" xmlns:xlink="http://www.w3.org/1999/xlink" xml:space="preserve" xmlns:serif="http://www.serif.com/" style="fill-rule:evenodd;clip-rule:evenodd;stroke-linejoin:round;stroke-miterlimit:2;"><path d="M384.679,150.534c-1.367,-0 -2.716,0.091 -4.05,0.208l0,-0.009c-0.825,0.075 -1.654,0.126 -2.492,0.126c-15.154,-0 -27.508,-11.83 -28.399,-26.755c0.004,-0.541 0.037,-1.079 0.037,-1.62c-0,-67.646 -54.837,-122.484 -122.487,-122.484c-67.646,0 -122.488,54.838 -122.488,122.484c0,67.649 54.842,122.491 122.488,122.491c0.7,0 1.395,-0.046 2.1,-0.058l-0,0.058l154.129,0l-0,-0.062c0.391,0.012 0.771,0.062 1.162,0.062c26.075,0 47.217,-21.146 47.217,-47.225c-0,-26.075 -21.142,-47.216 -47.217,-47.216Z" style="fill:#f3f3f4;fill-rule:nonzero;"/><path d="M399.383,227.225c0,9.8 -7.941,17.75 -17.745,17.75l-160.901,0c-9.799,0 -17.741,-7.95 -17.741,-17.75c-0,-9.796 7.942,-17.737 17.741,-17.737l160.901,-0c9.804,-0 17.745,7.941 17.745,17.737Z" style="fill:#edeae9;fill-rule:nonzero;"/><path d="M126.188,80.754c-0,-10.733 2.812,-20.712 7.604,-29.22c0.825,-1.751 1.758,-3.788 2.716,-5.925c22.292,-27.426 54.775,-44.721 90.963,-44.721c36.896,-0 69.921,17.979 92.242,46.333c2.245,4.929 3.545,10.471 3.545,16.354c0,20.4 -15.112,36.929 -33.758,36.929c-1.604,0 -2.163,-0.104 -4.713,-0.396c-17.145,-0.891 -32.983,2.93 -45.012,8.7c-13.983,6.705 -29.158,18.546 -45.971,24.692c-0.958,0.367 -1.937,0.688 -2.921,0.992c-0.766,0.241 -1.491,0.433 -2.221,0.625c-0.47,0.117 -0.92,0.254 -1.391,0.367c-1.238,0.274 -2.421,0.487 -3.508,0.591c-0.005,0 -0.013,-0.008 -0.026,-0.008c-2.137,0.3 -4.304,0.508 -6.516,0.508c-28.179,0 -51.033,-24.996 -51.033,-55.821Z" style="fill:#f9fafa;fill-rule:nonzero;"/><path d="M185.025,43.183c14.175,-9.125 18.475,-17.704 19.625,-20.812c3.454,-11.4 14.792,-20.033 28.704,-21.304c34.508,1.8 65.234,19.316 86.359,46.154c2.245,4.929 3.545,10.471 3.545,16.354c0,20.4 -15.112,36.929 -33.758,36.929c-1.604,0 -2.163,-0.104 -4.713,-0.396c-17.145,-0.891 -32.983,2.93 -45.012,8.7c-13.983,6.705 -29.158,18.546 -45.971,24.692c-0.958,0.367 -1.937,0.688 -2.921,0.992c-0.766,0.241 -1.491,0.433 -2.221,0.625c-0.47,0.117 -0.92,0.254 -1.391,0.367c-0.346,0.07 -0.642,0.091 -0.971,0.158c4.333,-4.438 5.433,-9.492 5.25,-15.029c-1.587,-17.096 -10.6,-28.98 -14.875,-33.725c-0.479,-0.48 -0.937,-0.971 -1.392,-1.479c-0.529,-0.538 -0.858,-0.842 -0.858,-0.842c-0,-0 0.004,-0.096 0.004,-0.146c-3.754,-4.658 -5.975,-10.304 -5.975,-16.409c0,-10.599 6.671,-19.833 16.571,-24.829Z" style="fill:#fdfdfd;fill-rule:nonzero;"/><path d="M293.346,53.396c-2.692,12.708 -19.513,19.3 -37.567,14.729c-18.062,-4.571 -30.525,-18.587 -27.833,-31.287c2.687,-12.709 19.508,-19.305 37.567,-14.73c18.062,4.571 30.525,18.58 27.833,31.288Z" style="fill:#fff;fill-rule:nonzero;"/><path d="M685.933,364.45c0,55.229 -44.775,100 -100.004,100c-55.229,0 -100,-44.771 -100,-100c0,-55.238 44.771,-100.008 100,-100.008c55.229,-0 100.004,44.77 100.004,100.008Z" style="fill:#f3f3f4;fill-rule:nonzero;"/><path d="M151.563,276.113c-0.001,133.758 108.433,242.187 242.183,242.187c133.762,0 242.187,-108.429 242.187,-242.187c0,-133.75 -108.425,-242.188 -242.187,-242.188c-133.75,0 -242.183,108.438 -242.183,242.188Z" style="fill:#febc2b;fill-rule:nonzero;"/><path d="M239.063,416.738c-0.001,41.42 40.575,75 90.624,75c50.046,-0 90.621,-33.58 90.621,-75c0,-41.417 -40.575,-75 -90.62,-75c-50.05,-0 -90.625,33.583 -90.625,75Z" style="fill:#ffc62c;fill-rule:nonzero;"/><path d="M192.188,179.238c-0.001,-19.517 5.599,-37.684 15.141,-53.163c1.634,-3.192 3.492,-6.896 5.4,-10.783c44.363,-49.896 109.004,-81.367 181.017,-81.367c73.413,0 139.15,32.708 183.566,84.304c4.467,8.971 7.059,19.046 7.059,29.759c-0,37.108 -30.079,67.187 -67.188,67.187c-3.191,0 -4.295,-0.196 -9.379,-0.725c-34.108,-1.617 -65.637,5.334 -89.575,15.833c-27.829,12.201 -58.021,33.738 -91.487,44.926c-1.909,0.662 -3.842,1.258 -5.809,1.804c-1.525,0.437 -2.966,0.787 -4.412,1.133c-0.929,0.212 -1.838,0.475 -2.779,0.667c-2.459,0.504 -4.809,0.895 -6.971,1.079c-0.017,-0 -0.029,-0.004 -0.046,-0.013c-4.262,0.55 -8.571,0.921 -12.975,0.921c-56.092,0 -101.562,-45.471 -101.562,-101.562Z" style="fill:#fdd82d;fill-rule:nonzero;"/><path d="M309.283,110.883c28.209,-16.599 36.759,-32.212 39.046,-37.87c6.884,-20.738 29.446,-36.45 57.129,-38.763c68.667,3.279 129.817,35.15 171.854,83.979c4.467,8.971 7.059,19.046 7.059,29.759c-0,37.108 -30.079,67.187 -67.188,67.187c-3.191,0 -4.295,-0.196 -9.379,-0.725c-34.108,-1.617 -65.637,5.334 -89.575,15.833c-27.829,12.201 -58.021,33.738 -91.487,44.926c-1.909,0.662 -3.842,1.258 -5.809,1.804c-1.525,0.437 -2.966,0.787 -4.412,1.133c-0.929,0.212 -1.838,0.475 -2.779,0.667c-0.675,0.137 -1.267,0.175 -1.929,0.295c8.625,-8.079 10.816,-17.266 10.45,-27.341c-3.155,-31.109 -21.101,-52.729 -29.6,-61.371c-0.959,-0.871 -1.875,-1.771 -2.759,-2.692c-1.062,-0.975 -1.721,-1.533 -1.721,-1.533c0,-0 0.009,-0.175 0.017,-0.262c-7.483,-8.463 -11.896,-18.742 -11.896,-29.846c0,-19.292 13.275,-36.1 32.979,-45.18Z" style="fill:#fce22c;fill-rule:nonzero;"/><path d="M524.842,129.458c-5.354,23.121 -38.825,35.121 -74.771,26.8c-35.938,-8.316 -60.738,-33.808 -55.379,-56.925c5.35,-23.12 38.825,-35.12 74.762,-26.796c35.938,8.317 60.738,33.809 55.388,56.921Z" style="fill:#fcf182;fill-rule:nonzero;"/><path d="M546.354,458.2c0,73.638 -59.696,133.329 -133.337,133.329c-73.642,0 -133.33,-59.691 -133.33,-133.329c0,-73.646 59.688,-133.337 133.33,-133.337c73.641,-0 133.337,59.691 133.337,133.337Z" style="fill:#e9e2d1;fill-rule:nonzero;"/><path d="M426.042,456.113c-2.079,-0 -4.125,0.133 -6.167,0.312l0,-0.012c-1.25,0.108 -2.513,0.195 -3.796,0.195c-23.058,0 -41.862,-18.012 -43.233,-40.729c0.016,-0.833 0.071,-1.641 0.071,-2.475c-0,-102.975 -83.484,-186.454 -186.463,-186.454c-102.979,0 -186.454,83.479 -186.454,186.454c-0,102.979 83.475,186.463 186.454,186.463c1.075,-0 2.125,-0.058 3.192,-0.079l-0,0.079l234.637,-0l0,-0.092c0.588,0.021 1.167,0.092 1.759,0.092c39.696,-0 71.879,-32.175 71.879,-71.879c-0,-39.692 -32.183,-71.875 -71.879,-71.875Z" style="fill:#f3f3f4;fill-rule:nonzero;"/><path d="M448.429,572.854c0,14.917 -12.087,27.013 -27.004,27.013l-244.946,-0c-14.916,-0 -27.004,-12.096 -27.004,-27.013c0,-14.912 12.088,-27 27.004,-27l244.946,0c14.917,0 27.004,12.088 27.004,27Z" style="fill:#edeae9;fill-rule:nonzero;"/><path d="M32.554,349.888c0,-16.334 4.284,-31.534 11.58,-44.484c1.258,-2.666 2.67,-5.766 4.129,-9.021c33.937,-41.741 83.383,-68.07 138.471,-68.07c56.158,-0 106.441,27.358 140.412,70.525c3.425,7.508 5.408,15.941 5.408,24.9c0,31.05 -23.008,56.216 -51.391,56.216c-2.446,0 -3.292,-0.158 -7.18,-0.612c-26.091,-1.35 -50.212,4.462 -68.52,13.25c-21.284,10.208 -44.38,28.225 -69.98,37.587c-1.462,0.554 -2.945,1.05 -4.441,1.509c-1.175,0.366 -2.279,0.658 -3.384,0.95c-0.712,0.179 -1.404,0.395 -2.125,0.554c-1.879,0.425 -3.679,0.754 -5.333,0.904c-0.012,0 -0.017,-0.004 -0.038,-0.012c-3.249,0.466 -6.545,0.774 -9.92,0.774c-42.904,0 -77.688,-38.041 -77.688,-84.97Z" style="fill:#f9fafa;fill-rule:nonzero;"/><path d="M122.125,292.696c21.575,-13.892 28.117,-26.954 29.871,-31.683c5.258,-17.359 22.521,-30.501 43.692,-32.434c52.533,2.742 99.312,29.409 131.458,70.259c3.425,7.508 5.408,15.941 5.408,24.9c0,31.05 -23.008,56.216 -51.391,56.216c-2.446,0 -3.292,-0.158 -7.18,-0.612c-26.091,-1.35 -50.212,4.462 -68.52,13.25c-21.284,10.208 -44.38,28.225 -69.98,37.587c-1.462,0.554 -2.945,1.05 -4.441,1.509c-1.175,0.366 -2.279,0.658 -3.384,0.95c-0.712,0.179 -1.404,0.395 -2.125,0.554c-0.516,0.116 -0.97,0.15 -1.47,0.254c6.6,-6.767 8.27,-14.454 7.991,-22.883c-2.416,-26.021 -16.146,-44.113 -22.646,-51.342c-0.729,-0.729 -1.433,-1.479 -2.112,-2.254c-0.808,-0.813 -1.308,-1.284 -1.308,-1.284c-0,0 0.004,-0.145 0.008,-0.216c-5.717,-7.088 -9.1,-15.684 -9.1,-24.971c-0,-16.146 10.15,-30.208 25.229,-37.8Z" style="fill:#fdfdfd;fill-rule:nonzero;"/><path d="M287.017,308.238c-4.096,19.346 -29.709,29.379 -57.196,22.416c-27.492,-6.958 -46.463,-28.283 -42.367,-47.625c4.096,-19.341 29.7,-29.383 57.192,-22.417c27.487,6.955 46.458,28.284 42.371,47.626Z" style="fill:#fff;fill-rule:nonzero;"/></svg>