<?xml version="1.0" encoding="UTF-8" standalone="no"?><!DOCTYPE svg PUBLIC "-//W3C//DTD SVG 1.1//EN" "http://www.w3.org/Graphics/SVG/1.1/DTD/svg11.dtd"><svg width="100%" height="100%" viewBox="0 0 654 728" version="1.1" xmlns="http://www.w3.org/2000/svg" xmlns:xlink="http://www.w3.org/1999/xlink" xml:space="preserve" xmlns:serif="http://www.serif.com/" style="fill-rule:evenodd;clip-rule:evenodd;stroke-linejoin:round;stroke-miterlimit:2;"><path d="M50.517,589.296c15.654,31.25 53.675,43.896 84.925,28.242c31.246,-15.65 43.891,-53.671 28.241,-84.921c-29.862,-59.621 -21.4,-60.054 -84.925,-28.246c-31.25,15.654 -43.891,53.675 -28.241,84.925Z" style="fill:#1bb2e7;fill-rule:nonzero;"/><path d="M124.55,524.738c-0.55,-10.809 -11.579,-19.034 -24.637,-18.367c-13.063,0.658 -23.213,9.954 -22.667,20.758c0.55,10.813 11.579,19.042 24.642,18.384c13.062,-0.663 23.208,-9.963 22.662,-20.775Z" style="fill:#64cbe4;fill-rule:nonzero;"/><path d="M160.746,578.813c0.262,5.095 -0.959,9.912 -3.25,14.075c-0.383,0.854 -0.817,1.845 -1.267,2.887c-10.917,13.604 -27.371,22.671 -46.166,23.617c-19.159,0.971 -36.746,-6.692 -49.017,-19.571c-1.283,-2.283 -2.088,-4.875 -2.233,-7.679c-0.488,-9.679 6.962,-17.925 16.645,-18.413c0.834,-0.046 1.125,-0.016 2.459,0.067c8.925,-0.033 17.062,-2.263 23.166,-5.317c7.104,-3.554 14.696,-9.579 23.284,-12.933c0.487,-0.196 0.987,-0.379 1.491,-0.55c0.392,-0.133 0.763,-0.246 1.138,-0.354c0.237,-0.071 0.471,-0.146 0.712,-0.217c0.638,-0.154 1.246,-0.292 1.809,-0.371c0.004,0.004 0.008,0.004 0.012,0.004c1.108,-0.2 2.221,-0.35 3.375,-0.404c14.638,-0.746 27.1,10.521 27.842,25.159Z" style="fill:#33c4f0;fill-rule:nonzero;"/><path d="M130.908,598.175c-7.125,4.696 -9.145,8.871 -9.666,10.371c-1.517,5.492 -7.184,9.879 -14.359,10.841c-17.916,0.055 -34.254,-7.441 -45.841,-19.591c-1.279,-2.284 -2.088,-4.871 -2.229,-7.654c-0.488,-9.663 6.945,-17.892 16.604,-18.379c0.829,-0.034 1.121,-0.005 2.454,0.066c8.896,-0.025 17.012,-2.25 23.104,-5.296c7.083,-3.545 14.663,-9.55 23.221,-12.904c0.492,-0.196 0.987,-0.375 1.492,-0.546c0.395,-0.129 0.762,-0.241 1.133,-0.35c0.241,-0.07 0.471,-0.145 0.712,-0.208c0.175,-0.05 0.334,-0.067 0.5,-0.104c-2.137,2.217 -2.583,4.637 -2.362,7.25c1.233,8.058 6.192,13.45 8.517,15.592c0.262,0.208 0.512,0.429 0.754,0.658c0.287,0.242 0.466,0.379 0.466,0.379l0,0.067c2.059,2.104 3.346,4.721 3.492,7.616c0.254,5.017 -2.983,9.571 -7.992,12.192Z" style="fill:#3fc3d7;fill-rule:nonzero;"/><path d="M74.558,596.175c1.084,-6.083 9.642,-9.65 19.105,-7.958c9.462,1.691 16.254,8 15.162,14.091c-1.083,6.088 -9.642,9.655 -19.108,7.963c-9.463,-1.7 -16.255,-8 -15.159,-14.096Z" style="fill:#64cbe4;fill-rule:nonzero;"/><path d="M404.162,616.225c16.426,32.788 56.325,46.058 89.117,29.642c32.792,-16.425 46.063,-56.334 29.638,-89.121c-31.338,-62.567 -22.463,-63.021 -89.117,-29.638c-32.792,16.425 -46.058,56.321 -29.638,89.117Z" style="fill:#1bb2e7;fill-rule:nonzero;"/><path d="M482.879,548.121c-0.575,-11.338 -12.154,-19.971 -25.858,-19.279c-13.704,0.7 -24.354,10.446 -23.779,21.795c0.575,11.342 12.15,19.976 25.858,19.284c13.704,-0.7 24.35,-10.45 23.779,-21.8Z" style="fill:#64cbe4;fill-rule:nonzero;"/><path d="M519.833,605.225c0.271,5.346 -1.008,10.4 -3.412,14.771c-0.4,0.892 -0.858,1.929 -1.325,3.025c-11.458,14.275 -28.725,23.787 -48.446,24.783c-20.104,1.021 -38.563,-7.025 -51.437,-20.533c-1.346,-2.404 -2.196,-5.125 -2.35,-8.058c-0.509,-10.163 7.312,-18.821 17.47,-19.334c0.879,-0.041 1.184,-0.004 2.584,0.075c9.362,-0.029 17.9,-2.371 24.308,-5.579c7.454,-3.725 15.425,-10.046 24.433,-13.575c0.513,-0.204 1.034,-0.387 1.567,-0.567c0.408,-0.15 0.8,-0.262 1.192,-0.37c0.25,-0.075 0.495,-0.159 0.75,-0.225c0.666,-0.171 1.304,-0.313 1.895,-0.392c0.005,-0 0.009,-0 0.013,0.004c1.158,-0.217 2.333,-0.371 3.538,-0.433c15.366,-0.775 28.445,11.041 29.22,26.408Z" style="fill:#33c4f0;fill-rule:nonzero;"/><path d="M488.521,625.542c-7.475,4.925 -9.596,9.304 -10.142,10.887c-1.591,5.759 -7.537,10.363 -15.071,11.375c-18.8,0.05 -35.941,-7.812 -48.1,-20.566c-1.346,-2.384 -2.195,-5.105 -2.341,-8.034c-0.513,-10.133 7.287,-18.766 17.429,-19.275c0.867,-0.05 1.171,-0.012 2.571,0.071c9.337,-0.033 17.85,-2.367 24.25,-5.567c7.429,-3.72 15.379,-10.02 24.362,-13.533c0.513,-0.208 1.038,-0.4 1.563,-0.575c0.416,-0.142 0.804,-0.258 1.191,-0.371c0.25,-0.071 0.496,-0.154 0.75,-0.221c0.184,-0.046 0.346,-0.066 0.525,-0.112c-2.245,2.337 -2.716,4.875 -2.479,7.612c1.292,8.459 6.496,14.113 8.934,16.359c0.279,0.225 0.537,0.458 0.791,0.696c0.3,0.258 0.492,0.399 0.492,0.399l-0,0.071c2.162,2.209 3.504,4.959 3.662,7.988c0.263,5.271 -3.129,10.037 -8.387,12.796Z" style="fill:#3fc3d7;fill-rule:nonzero;"/><path d="M429.388,623.446c1.141,-6.392 10.12,-10.133 20.049,-8.35c9.93,1.775 17.059,8.392 15.917,14.787c-1.146,6.38 -10.121,10.121 -20.054,8.346c-9.933,-1.775 -17.058,-8.396 -15.912,-14.783Z" style="fill:#64cbe4;fill-rule:nonzero;"/><path d="M217.496,697.975c13.179,26.308 45.191,36.954 71.496,23.775c26.308,-13.175 36.954,-45.183 23.775,-71.492c-25.138,-50.195 -18.017,-50.562 -71.492,-23.77c-26.304,13.166 -36.954,45.183 -23.779,71.487Z" style="fill:#1bb2e7;fill-rule:nonzero;"/><path d="M276.525,644.792c-0.458,-9.109 -9.746,-16.03 -20.742,-15.479c-10.995,0.562 -19.537,8.387 -19.075,17.487c0.463,9.1 9.746,16.025 20.742,15.471c11,-0.554 19.538,-8.388 19.075,-17.479Z" style="fill:#64cbe4;fill-rule:nonzero;"/><path d="M310.296,689.15c0.216,4.288 -0.813,8.342 -2.733,11.85c-0.326,0.717 -0.692,1.554 -1.071,2.425c-9.188,11.458 -23.042,19.092 -38.867,19.888c-16.129,0.825 -30.933,-5.638 -41.263,-16.48c-1.083,-1.925 -1.766,-4.1 -1.883,-6.462c-0.408,-8.15 5.867,-15.092 14.013,-15.504c0.704,-0.038 0.95,-0.004 2.071,0.062c7.512,-0.033 14.362,-1.908 19.508,-4.483c5.975,-2.988 12.371,-8.054 19.596,-10.888c0.412,-0.158 0.829,-0.316 1.254,-0.458c0.337,-0.117 0.646,-0.204 0.958,-0.3c0.2,-0.058 0.4,-0.125 0.604,-0.175c0.534,-0.142 1.046,-0.25 1.517,-0.317c0.008,0.005 0.008,0.005 0.012,0.005c0.934,-0.171 1.876,-0.296 2.842,-0.346c12.325,-0.625 22.817,8.862 23.442,21.183Z" style="fill:#33c4f0;fill-rule:nonzero;"/><path d="M285.171,705.45c-5.996,3.954 -7.696,7.467 -8.134,8.733c-1.275,4.621 -6.049,8.309 -12.087,9.121c-15.083,0.05 -28.837,-6.258 -38.596,-16.491c-1.075,-1.921 -1.758,-4.096 -1.875,-6.442c-0.408,-8.133 5.846,-15.063 13.984,-15.467c0.695,-0.037 0.941,-0.008 2.062,0.054c7.492,-0.025 14.321,-1.9 19.454,-4.462c5.963,-2.983 12.342,-8.038 19.55,-10.858c0.413,-0.171 0.829,-0.321 1.25,-0.467c0.333,-0.104 0.642,-0.204 0.954,-0.292c0.2,-0.058 0.396,-0.125 0.605,-0.175c0.145,-0.046 0.279,-0.054 0.416,-0.096c-1.8,1.875 -2.179,3.909 -1.983,6.113c1.037,6.779 5.208,11.321 7.166,13.125c0.221,0.175 0.43,0.367 0.634,0.554c0.246,0.2 0.396,0.321 0.396,0.321c-0,-0 -0.005,0.037 -0.005,0.05c1.738,1.779 2.813,3.979 2.942,6.417c0.213,4.225 -2.512,8.058 -6.733,10.262Z" style="fill:#3fc3d7;fill-rule:nonzero;"/><path d="M237.733,703.767c0.917,-5.121 8.117,-8.121 16.088,-6.696c7.962,1.417 13.683,6.737 12.767,11.862c-0.917,5.13 -8.117,8.121 -16.088,6.696c-7.967,-1.421 -13.683,-6.741 -12.767,-11.862Z" style="fill:#64cbe4;fill-rule:nonzero;"/><path d="M653.908,304.758c0,80.363 -65.15,145.513 -145.512,145.513c-80.367,-0 -145.517,-65.15 -145.517,-145.513c0,-80.366 65.15,-145.516 145.517,-145.516c80.362,-0 145.512,65.15 145.512,145.516Z" style="fill:#e9e2d1;fill-rule:nonzero;"/><path d="M547.462,294.463c-2.675,-0 -5.308,0.175 -7.924,0.391l-0,-0.004c-1.6,0.146 -3.23,0.246 -4.88,0.246c-29.629,-0 -53.791,-23.142 -55.546,-52.333c0.017,-1.063 0.084,-2.109 0.084,-3.171c-0,-132.325 -107.275,-239.592 -239.596,-239.592c-132.329,0 -239.6,107.267 -239.6,239.592c-0,132.321 107.271,239.6 239.6,239.6c1.375,-0 2.725,-0.084 4.096,-0.1l-0,0.1l301.504,-0l-0,-0.117c0.754,0.025 1.496,0.117 2.262,0.117c51.005,-0 92.363,-41.35 92.363,-92.367c0,-51.008 -41.358,-92.362 -92.363,-92.362Z" style="fill:#f3f3f4;fill-rule:nonzero;"/><path d="M576.233,444.479c0,19.167 -15.541,34.713 -34.708,34.713l-314.746,-0c-19.171,-0 -34.704,-15.546 -34.704,-34.713c0,-19.162 15.533,-34.7 34.704,-34.7l314.746,0c19.167,0 34.708,15.538 34.708,34.7Z" style="fill:#edeae9;fill-rule:nonzero;"/><path d="M41.833,157.967c0,-20.988 5.509,-40.513 14.88,-57.154c1.612,-3.434 3.437,-7.421 5.308,-11.596c43.612,-53.638 107.146,-87.475 177.937,-87.475c72.163,-0 136.771,35.162 180.425,90.633c4.396,9.642 6.946,20.483 6.946,31.992c0,39.9 -29.566,72.229 -66.037,72.229c-3.146,-0 -4.234,-0.204 -9.225,-0.771c-33.525,-1.742 -64.521,5.721 -88.05,17.021c-27.346,13.108 -57.025,36.267 -89.921,48.296c-1.879,0.712 -3.784,1.35 -5.713,1.941c-1.5,0.471 -2.916,0.838 -4.337,1.221c-0.921,0.225 -1.804,0.504 -2.729,0.713c-2.413,0.541 -4.729,0.958 -6.859,1.162c-0.016,0 -0.025,-0.008 -0.041,-0.016c-4.188,0.591 -8.425,1 -12.754,1c-55.13,-0 -99.83,-48.896 -99.83,-109.196Z" style="fill:#f9fafa;fill-rule:nonzero;"/><path d="M156.933,84.479c27.725,-17.846 36.134,-34.633 38.38,-40.712c6.758,-22.304 28.941,-39.196 56.149,-41.684c67.505,3.53 127.609,37.788 168.921,90.292c4.396,9.642 6.946,20.483 6.946,31.992c0,39.9 -29.566,72.229 -66.037,72.229c-3.146,-0 -4.234,-0.204 -9.225,-0.771c-33.525,-1.742 -64.521,5.721 -88.05,17.021c-27.346,13.108 -57.025,36.267 -89.921,48.296c-1.879,0.712 -3.784,1.35 -5.713,1.941c-1.5,0.471 -2.916,0.838 -4.337,1.221c-0.921,0.225 -1.804,0.504 -2.729,0.713c-0.671,0.15 -1.246,0.183 -1.896,0.316c8.479,-8.691 10.629,-18.566 10.275,-29.391c-3.108,-33.446 -20.75,-56.688 -29.104,-65.988c-0.942,-0.929 -1.842,-1.896 -2.717,-2.887c-1.037,-1.046 -1.683,-1.646 -1.683,-1.646c-0,-0 0.012,-0.188 0.012,-0.283c-7.346,-9.105 -11.687,-20.15 -11.687,-32.092c-0,-20.738 13.041,-38.804 32.416,-48.567Z" style="fill:#fdfdfd;fill-rule:nonzero;"/><path d="M368.813,104.446c-5.263,24.858 -38.167,37.758 -73.492,28.808c-35.325,-8.937 -59.704,-36.346 -54.438,-61.191c5.259,-24.863 38.163,-37.763 73.484,-28.809c35.329,8.933 59.704,36.342 54.446,61.192Z" style="fill:#fff;fill-rule:nonzero;"/></svg>