<?xml version="1.0" encoding="UTF-8" standalone="no"?><!DOCTYPE svg PUBLIC "-//W3C//DTD SVG 1.1//EN" "http://www.w3.org/Graphics/SVG/1.1/DTD/svg11.dtd"><svg width="100%" height="100%" viewBox="0 0 603 697" version="1.1" xmlns="http://www.w3.org/2000/svg" xmlns:xlink="http://www.w3.org/1999/xlink" xml:space="preserve" xmlns:serif="http://www.serif.com/" style="fill-rule:evenodd;clip-rule:evenodd;stroke-linejoin:round;stroke-miterlimit:2;"><path d="M233.617,184.371c-0,101.829 82.55,184.375 184.375,184.375c101.829,-0 184.366,-82.546 184.366,-184.375c0,-101.821 -82.537,-184.371 -184.366,-184.371c-101.825,0 -184.375,82.55 -184.375,184.371Z" style="fill:#e5dbd6;fill-rule:nonzero;"/><path d="M300.233,291.429c0,31.534 30.892,57.1 68.988,57.1c38.104,0 68.992,-25.566 68.992,-57.1c-0,-31.529 -30.888,-57.096 -68.992,-57.096c-38.096,0 -68.988,25.567 -68.988,57.096Z" style="fill:#f2f3ee;fill-rule:nonzero;"/><path d="M264.546,110.625c-0,-14.858 4.267,-28.696 11.529,-40.471c1.246,-2.433 2.658,-5.254 4.108,-8.208c33.78,-37.992 82.979,-61.946 137.809,-61.946c55.887,0 105.933,24.9 139.741,64.175c3.417,6.833 5.375,14.504 5.375,22.658c0,28.246 -22.875,51.15 -51.141,51.15c-2.434,0 -3.271,-0.15 -7.146,-0.558c-25.963,-1.225 -49.967,4.058 -68.196,12.054c-21.175,9.292 -44.167,25.684 -69.642,34.204c-1.45,0.5 -2.925,0.959 -4.42,1.371c-1.167,0.338 -2.263,0.604 -3.363,0.863c-0.708,0.166 -1.4,0.366 -2.117,0.508c-1.871,0.383 -3.662,0.683 -5.304,0.825c-0.012,0 -0.025,-0.004 -0.037,-0.004c-3.242,0.412 -6.521,0.692 -9.875,0.692c-42.7,-0 -77.321,-34.613 -77.321,-77.313Z" style="fill:#f0e8e6;fill-rule:nonzero;"/><path d="M353.692,58.588c21.475,-12.642 27.987,-24.534 29.725,-28.834c5.233,-15.791 22.412,-27.754 43.487,-29.512c52.279,2.5 98.834,26.758 130.829,63.933c3.417,6.833 5.375,14.504 5.375,22.658c0,28.246 -22.875,51.15 -51.141,51.15c-2.434,0 -3.271,-0.15 -7.146,-0.558c-25.963,-1.225 -49.967,4.058 -68.196,12.054c-21.175,9.292 -44.167,25.684 -69.642,34.204c-1.45,0.5 -2.925,0.959 -4.42,1.371c-1.167,0.338 -2.263,0.604 -3.363,0.863c-0.708,0.166 -1.4,0.366 -2.117,0.508c-0.516,0.113 -0.962,0.138 -1.462,0.233c6.562,-6.158 8.225,-13.15 7.954,-20.82c-2.404,-23.68 -16.071,-40.142 -22.538,-46.725c-0.733,-0.663 -1.424,-1.346 -2.1,-2.042c-0.808,-0.746 -1.312,-1.171 -1.312,-1.171c-0,0 0.008,-0.133 0.013,-0.196c-5.696,-6.454 -9.055,-14.271 -9.055,-22.72c0,-14.692 10.104,-27.488 25.109,-34.396Z" style="fill:#f2f3ee;fill-rule:nonzero;"/><path d="M517.796,72.725c-4.079,17.6 -29.563,26.733 -56.929,20.404c-27.35,-6.341 -46.234,-25.741 -42.163,-43.333c4.079,-17.604 29.563,-26.742 56.925,-20.408c27.358,6.337 46.238,25.737 42.167,43.337Z" style="fill:#fff;fill-rule:nonzero;"/><path d="M596.275,336.838c0,80.366 -65.163,145.508 -145.525,145.508c-80.367,-0 -145.517,-65.142 -145.517,-145.508c0,-80.371 65.15,-145.513 145.517,-145.513c80.362,0 145.525,65.142 145.525,145.513Z" style="fill:#cabdb8;fill-rule:nonzero;"/><path d="M464.963,334.558c-2.271,0 -4.509,0.15 -6.726,0.342l0,-0.017c-1.37,0.125 -2.749,0.213 -4.149,0.213c-25.163,-0 -45.684,-19.654 -47.176,-44.45c0.013,-0.904 0.067,-1.783 0.067,-2.688c0,-112.383 -91.104,-203.491 -203.487,-203.491c-112.384,-0 -203.492,91.108 -203.492,203.491c-0,112.38 91.108,203.492 203.492,203.492c1.166,0 2.316,-0.075 3.483,-0.096l0,0.096l256.067,0l-0,-0.1c0.637,0.013 1.27,0.1 1.921,0.1c43.316,0 78.437,-35.121 78.437,-78.446c0,-43.321 -35.121,-78.446 -78.437,-78.446Z" style="fill:#f3f3f4;fill-rule:nonzero;"/><path d="M489.396,461.967c-0,16.279 -13.196,29.483 -29.475,29.483l-267.313,0c-16.283,0 -29.479,-13.204 -29.479,-29.483c0,-16.275 13.196,-29.467 29.479,-29.467l267.313,0c16.279,0 29.475,13.192 29.475,29.467Z" style="fill:#edeae9;fill-rule:nonzero;"/><path d="M35.525,218.633c0,-17.829 4.683,-34.408 12.646,-48.545c1.371,-2.913 2.912,-6.3 4.508,-9.846c37.034,-45.554 90.992,-74.292 151.117,-74.292c61.287,-0 116.158,29.863 153.237,76.971c3.734,8.192 5.9,17.396 5.9,27.179c0,33.879 -25.112,61.346 -56.083,61.346c-2.671,-0 -3.6,-0.179 -7.837,-0.667c-28.475,-1.475 -54.796,4.867 -74.784,14.463c-23.225,11.129 -48.433,30.8 -76.371,41.021c-1.591,0.595 -3.208,1.141 -4.846,1.641c-1.275,0.404 -2.479,0.721 -3.687,1.038c-0.779,0.196 -1.533,0.429 -2.317,0.608c-2.05,0.458 -4.016,0.817 -5.825,0.988c-0.012,-0 -0.02,-0.009 -0.037,-0.017c-3.554,0.508 -7.15,0.846 -10.834,0.846c-46.816,-0 -84.787,-41.521 -84.787,-92.734Z" style="fill:#f9fafa;fill-rule:nonzero;"/><path d="M133.279,156.221c23.55,-15.163 30.692,-29.421 32.6,-34.575c5.738,-18.946 24.583,-33.296 47.692,-35.4c57.333,2.991 108.375,32.087 143.462,76.675c3.734,8.192 5.9,17.396 5.9,27.179c0,33.879 -25.112,61.346 -56.083,61.346c-2.671,-0 -3.6,-0.179 -7.837,-0.667c-28.475,-1.475 -54.796,4.867 -74.784,14.463c-23.225,11.129 -48.433,30.8 -76.371,41.021c-1.591,0.595 -3.208,1.141 -4.846,1.641c-1.275,0.404 -2.479,0.721 -3.687,1.038c-0.779,0.196 -1.533,0.429 -2.317,0.608c-0.571,0.125 -1.062,0.158 -1.608,0.271c7.2,-7.383 9.025,-15.771 8.721,-24.967c-2.638,-28.404 -17.617,-48.141 -24.717,-56.041c-0.796,-0.788 -1.562,-1.609 -2.304,-2.45c-0.883,-0.884 -1.429,-1.396 -1.429,-1.396c-0,-0 0.008,-0.163 0.012,-0.246c-6.241,-7.729 -9.929,-17.108 -9.929,-27.254c0,-17.617 11.075,-32.959 27.525,-41.246Z" style="fill:#fdfdfd;fill-rule:nonzero;"/><path d="M313.238,173.175c-4.471,21.117 -32.421,32.067 -62.421,24.471c-30,-7.592 -50.705,-30.867 -46.234,-51.975c4.467,-21.112 32.409,-32.067 62.413,-24.467c30,7.592 50.704,30.867 46.242,51.971Z" style="fill:#fff;fill-rule:nonzero;"/><path d="M103.317,586.908c12.471,24.9 42.762,34.971 67.658,22.505c24.896,-12.475 34.971,-42.767 22.5,-67.659c-23.788,-47.508 -17.05,-47.854 -67.658,-22.504c-24.892,12.479 -34.967,42.758 -22.5,67.658Z" style="fill:#1bb2e7;fill-rule:nonzero;"/><path d="M162.3,535.479c-0.438,-8.608 -9.229,-15.171 -19.637,-14.641c-10.405,0.52 -18.488,7.937 -18.051,16.545c0.442,8.609 9.221,15.171 19.63,14.642c10.404,-0.529 18.491,-7.937 18.058,-16.546Z" style="fill:#64cbe4;fill-rule:nonzero;"/><path d="M191.137,578.554c0.209,4.059 -0.766,7.892 -2.591,11.209c-0.304,0.683 -0.65,1.479 -1.009,2.308c-8.699,10.842 -21.808,18.058 -36.775,18.817c-15.27,0.775 -29.283,-5.334 -39.058,-15.596c-1.025,-1.821 -1.667,-3.888 -1.779,-6.113c-0.392,-7.716 5.546,-14.287 13.263,-14.675c0.662,-0.037 0.891,-0.004 1.954,0.054c7.112,-0.029 13.6,-1.808 18.466,-4.233c5.65,-2.829 11.7,-7.633 18.546,-10.3c0.388,-0.162 0.779,-0.312 1.183,-0.45c0.313,-0.104 0.609,-0.187 0.913,-0.275c0.187,-0.054 0.375,-0.121 0.567,-0.171c0.508,-0.125 0.987,-0.237 1.433,-0.3c0.004,0.004 0.013,0.004 0.013,0.004c0.879,-0.154 1.774,-0.283 2.691,-0.325c11.667,-0.583 21.592,8.384 22.183,20.046Z" style="fill:#33c4f0;fill-rule:nonzero;"/><path d="M167.362,593.983c-5.67,3.738 -7.283,7.063 -7.7,8.259c-1.208,4.371 -5.724,7.871 -11.441,8.641c-14.275,0.042 -27.296,-5.929 -36.517,-15.612c-1.025,-1.817 -1.667,-3.875 -1.779,-6.096c-0.392,-7.7 5.533,-14.254 13.233,-14.642c0.659,-0.029 0.888,-0.008 1.946,0.05c7.092,-0.016 13.558,-1.787 18.413,-4.216c5.641,-2.834 11.683,-7.609 18.5,-10.288c0.391,-0.15 0.787,-0.296 1.187,-0.429c0.317,-0.108 0.609,-0.187 0.904,-0.283c0.196,-0.05 0.375,-0.117 0.567,-0.167c0.142,-0.037 0.263,-0.05 0.396,-0.075c-1.696,1.763 -2.054,3.692 -1.879,5.783c0.983,6.413 4.933,10.7 6.783,12.409c0.212,0.171 0.408,0.35 0.6,0.529c0.229,0.187 0.371,0.3 0.371,0.3l-0,0.05c1.646,1.683 2.666,3.767 2.787,6.071c0.2,3.996 -2.379,7.621 -6.371,9.716Z" style="fill:#3fc3d7;fill-rule:nonzero;"/><path d="M122.471,592.388c0.867,-4.846 7.675,-7.684 15.221,-6.334c7.533,1.342 12.946,6.371 12.079,11.225c-0.867,4.842 -7.679,7.684 -15.225,6.334c-7.542,-1.35 -12.946,-6.375 -12.075,-11.225Z" style="fill:#64cbe4;fill-rule:nonzero;"/><path d="M385.067,608.363c13.087,26.129 44.875,36.7 71,23.612c26.133,-13.087 36.7,-44.871 23.616,-70.996c-24.966,-49.854 -17.896,-50.216 -70.995,-23.612c-26.134,13.087 -36.705,44.875 -23.621,70.996Z" style="fill:#1bb2e7;fill-rule:nonzero;"/><path d="M447.783,554.108c-0.462,-9.041 -9.679,-15.92 -20.608,-15.37c-10.917,0.558 -19.4,8.329 -18.942,17.37c0.459,9.034 9.684,15.913 20.605,15.359c10.916,-0.55 19.4,-8.325 18.945,-17.359Z" style="fill:#64cbe4;fill-rule:nonzero;"/><path d="M477.225,599.6c0.213,4.254 -0.804,8.283 -2.717,11.767c-0.321,0.712 -0.683,1.541 -1.062,2.408c-9.125,11.375 -22.883,18.954 -38.592,19.75c-16.021,0.817 -30.725,-5.596 -40.987,-16.367c-1.067,-1.904 -1.75,-4.079 -1.867,-6.416c-0.408,-8.092 5.825,-14.992 13.925,-15.4c0.692,-0.038 0.933,-0.009 2.05,0.058c7.458,-0.025 14.262,-1.887 19.371,-4.442c5.933,-2.97 12.283,-8.004 19.458,-10.816c0.413,-0.163 0.833,-0.313 1.25,-0.459c0.329,-0.112 0.646,-0.2 0.95,-0.295c0.204,-0.055 0.392,-0.121 0.6,-0.171c0.529,-0.146 1.038,-0.246 1.513,-0.313l0.008,0c0.921,-0.171 1.858,-0.296 2.821,-0.346c12.237,-0.616 22.662,8.8 23.279,21.042Z" style="fill:#33c4f0;fill-rule:nonzero;"/><path d="M452.275,615.783c-5.958,3.925 -7.642,7.425 -8.079,8.671c-1.267,4.592 -6.004,8.259 -12,9.071c-14.984,0.038 -28.642,-6.225 -38.334,-16.387c-1.066,-1.905 -1.745,-4.071 -1.858,-6.396c-0.412,-8.084 5.804,-14.959 13.884,-15.363c0.687,-0.037 0.933,-0.004 2.049,0.054c7.438,-0.025 14.221,-1.883 19.321,-4.437c5.917,-2.954 12.25,-7.975 19.409,-10.779c0.408,-0.167 0.82,-0.317 1.246,-0.459c0.333,-0.104 0.641,-0.2 0.945,-0.291c0.2,-0.054 0.392,-0.125 0.6,-0.179c0.146,-0.034 0.275,-0.05 0.417,-0.084c-1.787,1.854 -2.167,3.875 -1.975,6.063c1.029,6.737 5.171,11.237 7.121,13.037c0.221,0.171 0.429,0.359 0.629,0.546c0.238,0.204 0.387,0.317 0.387,0.317l0,0.058c1.721,1.767 2.796,3.946 2.917,6.363c0.217,4.2 -2.487,8.004 -6.679,10.195Z" style="fill:#3fc3d7;fill-rule:nonzero;"/><path d="M405.163,614.117c0.912,-5.092 8.066,-8.067 15.974,-6.654c7.913,1.412 13.592,6.691 12.68,11.783c-0.913,5.083 -8.063,8.062 -15.975,6.65c-7.913,-1.417 -13.588,-6.692 -12.679,-11.779Z" style="fill:#64cbe4;fill-rule:nonzero;"/><path d="M236.35,673.492c10.5,20.962 36.004,29.441 56.967,18.946c20.954,-10.496 29.433,-35.996 18.933,-56.959c-20.025,-39.991 -14.354,-40.283 -56.954,-18.946c-20.959,10.5 -29.442,36.005 -18.946,56.959Z" style="fill:#1bb2e7;fill-rule:nonzero;"/><path d="M283.379,631.117c-0.367,-7.25 -7.767,-12.767 -16.529,-12.329c-8.754,0.45 -15.558,6.683 -15.196,13.933c0.367,7.25 7.767,12.767 16.529,12.329c8.763,-0.45 15.563,-6.683 15.196,-13.933Z" style="fill:#64cbe4;fill-rule:nonzero;"/><path d="M310.283,666.463c0.171,3.416 -0.646,6.65 -2.183,9.437c-0.258,0.571 -0.546,1.246 -0.846,1.937c-7.325,9.121 -18.358,15.209 -30.962,15.846c-12.859,0.65 -24.65,-4.491 -32.879,-13.137c-0.859,-1.529 -1.405,-3.258 -1.496,-5.142c-0.329,-6.496 4.67,-12.016 11.162,-12.354c0.558,-0.021 0.754,-0.008 1.65,0.054c5.983,-0.021 11.438,-1.516 15.538,-3.571c4.762,-2.387 9.854,-6.42 15.616,-8.679c0.325,-0.129 0.663,-0.25 1,-0.366c0.267,-0.088 0.513,-0.163 0.759,-0.23c0.158,-0.054 0.321,-0.108 0.483,-0.141c0.425,-0.121 0.838,-0.209 1.208,-0.259l0.009,0.009c0.745,-0.142 1.496,-0.242 2.262,-0.284c9.821,-0.491 18.183,7.067 18.679,16.88Z" style="fill:#33c4f0;fill-rule:nonzero;"/><path d="M290.267,679.458c-4.775,3.15 -6.134,5.938 -6.479,6.955c-1.021,3.67 -4.826,6.62 -9.63,7.262c-12.016,0.042 -22.983,-4.983 -30.75,-13.142c-0.858,-1.533 -1.4,-3.258 -1.491,-5.129c-0.329,-6.479 4.654,-12.004 11.133,-12.321c0.554,-0.033 0.754,-0.008 1.642,0.042c5.975,-0.021 11.416,-1.512 15.504,-3.558c4.75,-2.375 9.829,-6.4 15.575,-8.646c0.325,-0.142 0.658,-0.25 0.991,-0.371c0.271,-0.087 0.513,-0.162 0.767,-0.233c0.158,-0.05 0.313,-0.104 0.479,-0.146c0.117,-0.021 0.221,-0.042 0.334,-0.067c-1.434,1.488 -1.738,3.117 -1.584,4.875c0.829,5.396 4.15,9.009 5.709,10.446c0.179,0.146 0.346,0.296 0.504,0.438c0.196,0.166 0.321,0.258 0.321,0.258l-0,0.037c1.379,1.417 2.237,3.175 2.337,5.121c0.167,3.371 -1.996,6.413 -5.362,8.179Z" style="fill:#3fc3d7;fill-rule:nonzero;"/><path d="M252.475,678.113c0.729,-4.084 6.467,-6.475 12.813,-5.346c6.345,1.133 10.904,5.371 10.17,9.458c-0.72,4.083 -6.466,6.467 -12.816,5.338c-6.346,-1.138 -10.905,-5.367 -10.167,-9.45Z" style="fill:#64cbe4;fill-rule:nonzero;"/></svg>