<?xml version="1.0" encoding="UTF-8" standalone="no"?><!DOCTYPE svg PUBLIC "-//W3C//DTD SVG 1.1//EN" "http://www.w3.org/Graphics/SVG/1.1/DTD/svg11.dtd"><svg width="100%" height="100%" viewBox="0 0 606 697" version="1.1" xmlns="http://www.w3.org/2000/svg" xmlns:xlink="http://www.w3.org/1999/xlink" xml:space="preserve" xmlns:serif="http://www.serif.com/" style="fill-rule:evenodd;clip-rule:evenodd;stroke-linejoin:round;stroke-miterlimit:2;"><path d="M233.617,185.867c-0,102.65 83.216,185.866 185.866,185.866c102.65,0 185.871,-83.216 185.871,-185.866c0,-102.654 -83.221,-185.867 -185.871,-185.867c-102.65,0 -185.866,83.213 -185.866,185.867Z" style="fill:#febc2b;fill-rule:nonzero;"/><path d="M300.771,293.792c-0,31.787 31.137,57.558 69.55,57.558c38.412,0 69.554,-25.771 69.554,-57.558c0,-31.796 -31.142,-57.559 -69.554,-57.559c-38.413,0 -69.55,25.763 -69.55,57.559Z" style="fill:#ffc62c;fill-rule:nonzero;"/><path d="M264.796,111.525c-0,-14.983 4.296,-28.929 11.621,-40.804c1.258,-2.45 2.679,-5.292 4.141,-8.279c34.05,-38.292 83.65,-62.442 138.925,-62.442c56.338,-0 106.796,25.1 140.879,64.696c3.426,6.887 5.417,14.617 5.417,22.837c0,28.484 -23.087,51.563 -51.562,51.563c-2.45,-0 -3.296,-0.146 -7.196,-0.563c-26.179,-1.237 -50.379,4.096 -68.75,12.155c-21.354,9.362 -44.529,25.899 -70.213,34.483c-1.466,0.504 -2.945,0.967 -4.458,1.379c-1.167,0.342 -2.271,0.608 -3.383,0.875c-0.713,0.162 -1.413,0.371 -2.138,0.512c-1.887,0.392 -3.692,0.688 -5.346,0.834c-0.012,-0.008 -0.025,-0.008 -0.037,-0.017c-3.271,0.421 -6.579,0.709 -9.954,0.709c-43.046,-0 -77.946,-34.892 -77.946,-77.938Z" style="fill:#fdd82d;fill-rule:nonzero;"/><path d="M354.654,59.062c21.65,-12.745 28.221,-24.733 29.971,-29.066c5.283,-15.917 22.6,-27.979 43.842,-29.746c52.708,2.508 99.633,26.971 131.895,64.446c3.426,6.887 5.417,14.617 5.417,22.837c0,28.484 -23.087,51.563 -51.562,51.563c-2.45,-0 -3.296,-0.146 -7.196,-0.563c-26.179,-1.237 -50.379,4.096 -68.75,12.155c-21.354,9.362 -44.529,25.899 -70.213,34.483c-1.466,0.504 -2.945,0.967 -4.458,1.379c-1.167,0.342 -2.271,0.608 -3.383,0.875c-0.713,0.162 -1.413,0.371 -2.138,0.512c-0.521,0.109 -0.966,0.134 -1.475,0.23c6.617,-6.209 8.3,-13.259 8.021,-20.988c-2.425,-23.871 -16.2,-40.467 -22.721,-47.104c-0.733,-0.663 -1.437,-1.358 -2.116,-2.058c-0.813,-0.75 -1.321,-1.171 -1.321,-1.171c-0,-0 0.008,-0.142 0.016,-0.204c-5.746,-6.5 -9.137,-14.388 -9.137,-22.913c-0,-14.8 10.192,-27.704 25.308,-34.667Z" style="fill:#fce22c;fill-rule:nonzero;"/><path d="M520.092,73.317c-4.109,17.737 -29.796,26.95 -57.379,20.562c-27.58,-6.387 -46.617,-25.95 -42.505,-43.683c4.109,-17.746 29.8,-26.954 57.38,-20.567c27.579,6.384 46.616,25.942 42.504,43.688Z" style="fill:#fcf182;fill-rule:nonzero;"/><path d="M596.254,336.842c0,80.362 -65.142,145.508 -145.508,145.508c-80.367,0 -145.513,-65.146 -145.513,-145.508c0,-80.371 65.146,-145.517 145.513,-145.517c80.366,-0 145.508,65.146 145.508,145.517Z" style="fill:#e9e2d1;fill-rule:nonzero;"/><path d="M464.958,334.554c-2.271,0 -4.5,0.154 -6.725,0.342l0,-0.008c-1.366,0.12 -2.75,0.204 -4.145,0.204c-25.167,-0 -45.688,-19.654 -47.18,-44.442c0.013,-0.904 0.067,-1.792 0.067,-2.696c0,-112.383 -91.104,-203.492 -203.483,-203.492c-112.384,0 -203.492,91.109 -203.492,203.492c-0,112.388 91.108,203.492 203.492,203.492c1.166,-0 2.312,-0.071 3.479,-0.088l-0,0.088l256.067,-0l-0,-0.096c0.641,0.013 1.27,0.096 1.92,0.096c43.325,-0 78.442,-35.121 78.442,-78.442c0,-43.321 -35.117,-78.45 -78.442,-78.45Z" style="fill:#f3f3f4;fill-rule:nonzero;"/><path d="M489.392,461.967c-0,16.279 -13.196,29.479 -29.471,29.479l-267.317,-0c-16.279,-0 -29.475,-13.2 -29.475,-29.479c0,-16.28 13.196,-29.467 29.475,-29.467l267.317,0c16.275,0 29.471,13.187 29.471,29.467Z" style="fill:#edeae9;fill-rule:nonzero;"/><path d="M35.529,218.633c0,-17.829 4.679,-34.404 12.638,-48.55c1.37,-2.912 2.912,-6.295 4.508,-9.845c37.033,-45.559 90.996,-74.292 151.121,-74.292c61.287,-0 116.158,29.866 153.233,76.975c3.738,8.187 5.896,17.391 5.896,27.175c-0,33.883 -25.108,61.35 -56.079,61.35c-2.671,-0 -3.592,-0.175 -7.833,-0.667c-28.48,-1.479 -54.8,4.863 -74.784,14.458c-23.229,11.134 -48.437,30.809 -76.371,41.021c-1.595,0.6 -3.212,1.142 -4.846,1.642c-1.274,0.404 -2.487,0.721 -3.687,1.038c-0.783,0.195 -1.533,0.437 -2.321,0.612c-2.05,0.458 -4.017,0.808 -5.821,0.979c-0.012,0 -0.025,-0.004 -0.041,-0.008c-3.554,0.504 -7.15,0.842 -10.829,0.842c-46.821,-0 -84.784,-41.513 -84.784,-92.73Z" style="fill:#f9fafa;fill-rule:nonzero;"/><path d="M133.283,156.217c23.542,-15.163 30.68,-29.417 32.592,-34.579c5.742,-18.946 24.583,-33.284 47.692,-35.4c57.333,3 108.375,32.095 143.462,76.683c3.738,8.187 5.896,17.391 5.896,27.175c-0,33.883 -25.108,61.35 -56.079,61.35c-2.671,-0 -3.592,-0.175 -7.833,-0.667c-28.48,-1.479 -54.8,4.863 -74.784,14.458c-23.229,11.134 -48.437,30.809 -76.371,41.021c-1.595,0.6 -3.212,1.142 -4.846,1.642c-1.274,0.404 -2.487,0.721 -3.687,1.038c-0.783,0.195 -1.533,0.437 -2.321,0.612c-0.567,0.121 -1.062,0.158 -1.604,0.267c7.196,-7.375 9.021,-15.771 8.721,-24.971c-2.642,-28.396 -17.621,-48.138 -24.717,-56.033c-0.8,-0.784 -1.562,-1.613 -2.308,-2.455c-0.879,-0.887 -1.429,-1.4 -1.429,-1.4c-0,0 0.008,-0.154 0.012,-0.241c-6.241,-7.725 -9.929,-17.109 -9.929,-27.25c0,-17.617 11.079,-32.963 27.533,-41.25Z" style="fill:#fdfdfd;fill-rule:nonzero;"/><path d="M313.233,173.171c-4.47,21.121 -32.416,32.071 -62.416,24.471c-30.005,-7.596 -50.709,-30.867 -46.238,-51.971c4.467,-21.113 32.413,-32.067 62.421,-24.471c29.996,7.592 50.7,30.875 46.233,51.971Z" style="fill:#fff;fill-rule:nonzero;"/><path d="M103.312,586.904c12.471,24.904 42.763,34.975 67.659,22.504c24.896,-12.475 34.975,-42.758 22.5,-67.658c-23.788,-47.508 -17.05,-47.85 -67.654,-22.504c-24.896,12.475 -34.971,42.766 -22.505,67.658Z" style="fill:#1bb2e7;fill-rule:nonzero;"/><path d="M162.3,535.479c-0.442,-8.616 -9.229,-15.167 -19.637,-14.646c-10.405,0.529 -18.488,7.934 -18.055,16.55c0.442,8.613 9.225,15.163 19.638,14.642c10.4,-0.533 18.487,-7.933 18.054,-16.546Z" style="fill:#64cbe4;fill-rule:nonzero;"/><path d="M191.137,578.55c0.209,4.058 -0.77,7.9 -2.595,11.212c-0.304,0.684 -0.65,1.476 -1.004,2.309c-8.7,10.837 -21.809,18.062 -36.78,18.817c-15.27,0.774 -29.279,-5.338 -39.058,-15.596c-1.025,-1.825 -1.658,-3.888 -1.775,-6.117c-0.392,-7.713 5.542,-14.287 13.263,-14.671c0.658,-0.037 0.891,-0.008 1.954,0.054c7.116,-0.029 13.595,-1.804 18.462,-4.237c5.65,-2.833 11.704,-7.625 18.546,-10.304c0.388,-0.154 0.783,-0.3 1.187,-0.442c0.317,-0.104 0.609,-0.192 0.909,-0.275c0.187,-0.054 0.379,-0.121 0.566,-0.171c0.509,-0.129 0.988,-0.237 1.434,-0.3c0.008,0.009 0.012,0.009 0.012,0.009c0.888,-0.163 1.779,-0.288 2.692,-0.334c11.667,-0.587 21.596,8.392 22.187,20.046Z" style="fill:#33c4f0;fill-rule:nonzero;"/><path d="M167.362,593.979c-5.675,3.742 -7.287,7.071 -7.699,8.267c-1.209,4.371 -5.725,7.867 -11.438,8.633c-14.279,0.042 -27.296,-5.925 -36.525,-15.612c-1.025,-1.809 -1.667,-3.875 -1.775,-6.1c-0.392,-7.692 5.529,-14.25 13.233,-14.629c0.659,-0.034 0.884,-0.017 1.946,0.045c7.088,-0.02 13.554,-1.787 18.413,-4.216c5.641,-2.834 11.683,-7.617 18.495,-10.284c0.396,-0.154 0.792,-0.3 1.188,-0.437c0.321,-0.1 0.613,-0.192 0.904,-0.279c0.196,-0.059 0.375,-0.113 0.567,-0.163c0.141,-0.046 0.262,-0.058 0.4,-0.083c-1.7,1.767 -2.059,3.696 -1.884,5.779c0.984,6.417 4.934,10.708 6.784,12.421c0.212,0.171 0.408,0.346 0.604,0.521c0.225,0.187 0.371,0.308 0.371,0.308l-0,0.05c1.642,1.683 2.662,3.763 2.783,6.063c0.204,3.999 -2.379,7.625 -6.367,9.716Z" style="fill:#3fc3d7;fill-rule:nonzero;"/><path d="M122.467,592.388c0.866,-4.846 7.679,-7.688 15.22,-6.338c7.538,1.346 12.946,6.375 12.08,11.225c-0.867,4.85 -7.679,7.683 -15.221,6.338c-7.546,-1.351 -12.95,-6.371 -12.079,-11.225Z" style="fill:#64cbe4;fill-rule:nonzero;"/><path d="M385.067,608.358c13.087,26.13 44.87,36.7 71,23.617c26.125,-13.096 36.696,-44.875 23.612,-70.996c-24.967,-49.854 -17.896,-50.212 -70.996,-23.617c-26.129,13.084 -36.7,44.871 -23.616,70.996Z" style="fill:#1bb2e7;fill-rule:nonzero;"/><path d="M447.779,554.104c-0.458,-9.037 -9.683,-15.916 -20.6,-15.367c-10.921,0.555 -19.404,8.334 -18.946,17.371c0.459,9.034 9.68,15.913 20.6,15.355c10.921,-0.551 19.4,-8.326 18.946,-17.359Z" style="fill:#64cbe4;fill-rule:nonzero;"/><path d="M477.221,599.592c0.212,4.266 -0.804,8.296 -2.717,11.771c-0.321,0.712 -0.683,1.545 -1.058,2.412c-9.129,11.375 -22.883,18.946 -38.596,19.75c-16.021,0.808 -30.725,-5.596 -40.988,-16.371c-1.066,-1.904 -1.741,-4.075 -1.862,-6.412c-0.412,-8.096 5.817,-14.992 13.921,-15.4c0.696,-0.038 0.929,-0.005 2.05,0.05c7.467,-0.021 14.262,-1.884 19.371,-4.434c5.933,-2.97 12.291,-8.008 19.466,-10.825c0.409,-0.154 0.825,-0.308 1.246,-0.445c0.325,-0.117 0.638,-0.213 0.954,-0.3c0.2,-0.059 0.388,-0.126 0.592,-0.171c0.533,-0.146 1.042,-0.254 1.513,-0.313l0.008,0c0.921,-0.171 1.866,-0.3 2.821,-0.35c12.237,-0.616 22.662,8.804 23.279,21.038Z" style="fill:#33c4f0;fill-rule:nonzero;"/><path d="M452.279,615.779c-5.958,3.925 -7.65,7.421 -8.083,8.675c-1.267,4.592 -6.004,8.263 -12.004,9.071c-14.98,0.038 -28.642,-6.225 -38.334,-16.388c-1.071,-1.904 -1.737,-4.07 -1.854,-6.395c-0.416,-8.079 5.808,-14.963 13.879,-15.363c0.692,-0.037 0.938,-0.008 2.05,0.054c7.438,-0.025 14.221,-1.887 19.325,-4.437c5.913,-2.954 12.25,-7.979 19.409,-10.779c0.412,-0.163 0.825,-0.317 1.246,-0.454c0.329,-0.117 0.637,-0.205 0.945,-0.296c0.2,-0.054 0.392,-0.121 0.596,-0.188c0.146,-0.029 0.275,-0.046 0.417,-0.075c-1.788,1.854 -2.159,3.875 -1.971,6.058c1.033,6.738 5.167,11.246 7.117,13.038c0.221,0.171 0.429,0.363 0.633,0.554c0.233,0.196 0.388,0.317 0.388,0.317l-0,0.05c1.716,1.762 2.791,3.954 2.912,6.371c0.217,4.2 -2.487,8 -6.671,10.187Z" style="fill:#3fc3d7;fill-rule:nonzero;"/><path d="M405.163,614.117c0.908,-5.092 8.062,-8.071 15.97,-6.654c7.913,1.408 13.596,6.687 12.688,11.779c-0.921,5.083 -8.071,8.062 -15.983,6.654c-7.913,-1.417 -13.584,-6.7 -12.675,-11.779Z" style="fill:#64cbe4;fill-rule:nonzero;"/><path d="M236.346,673.492c10.504,20.966 36.004,29.441 56.962,18.946c20.963,-10.5 29.438,-36.001 18.938,-56.959c-20.021,-39.991 -14.35,-40.283 -56.95,-18.946c-20.958,10.496 -29.442,36.005 -18.95,56.959Z" style="fill:#1bb2e7;fill-rule:nonzero;"/><path d="M283.379,631.113c-0.366,-7.25 -7.771,-12.771 -16.529,-12.33c-8.758,0.455 -15.562,6.684 -15.196,13.934c0.367,7.254 7.763,12.77 16.529,12.329c8.759,-0.442 15.563,-6.683 15.196,-13.933Z" style="fill:#64cbe4;fill-rule:nonzero;"/><path d="M310.287,666.458c0.171,3.417 -0.658,6.655 -2.191,9.446c-0.25,0.563 -0.546,1.246 -0.846,1.933c-7.325,9.126 -18.358,15.209 -30.962,15.842c-12.855,0.658 -24.646,-4.492 -32.875,-13.133c-0.859,-1.533 -1.409,-3.267 -1.5,-5.146c-0.325,-6.496 4.675,-12.017 11.162,-12.354c0.562,-0.025 0.758,-0.004 1.65,0.05c5.987,-0.017 11.442,-1.517 15.537,-3.567c4.763,-2.383 9.859,-6.421 15.621,-8.675c0.321,-0.129 0.659,-0.254 0.996,-0.366c0.267,-0.092 0.513,-0.167 0.763,-0.238c0.158,-0.05 0.321,-0.1 0.479,-0.146c0.429,-0.104 0.837,-0.2 1.208,-0.246l0.013,0.005c0.746,-0.138 1.491,-0.246 2.258,-0.28c9.825,-0.496 18.183,7.063 18.687,16.875Z" style="fill:#33c4f0;fill-rule:nonzero;"/><path d="M290.267,679.45c-4.779,3.15 -6.13,5.95 -6.479,6.954c-1.017,3.684 -4.826,6.629 -9.63,7.271c-12.016,0.033 -22.979,-4.987 -30.75,-13.142c-0.862,-1.529 -1.404,-3.258 -1.495,-5.133c-0.325,-6.475 4.658,-11.996 11.137,-12.321c0.55,-0.033 0.754,-0.008 1.642,0.038c5.971,-0.017 11.416,-1.504 15.5,-3.546c4.754,-2.384 9.833,-6.404 15.579,-8.658c0.325,-0.134 0.662,-0.25 0.991,-0.367c0.267,-0.083 0.513,-0.163 0.763,-0.229c0.158,-0.05 0.317,-0.104 0.483,-0.146c0.113,-0.025 0.217,-0.046 0.334,-0.071c-1.434,1.492 -1.738,3.113 -1.588,4.871c0.829,5.404 4.15,9.017 5.713,10.45c0.179,0.146 0.341,0.292 0.508,0.441c0.188,0.163 0.312,0.255 0.312,0.255l0,0.045c1.38,1.409 2.238,3.175 2.342,5.109c0.167,3.371 -2,6.417 -5.362,8.179Z" style="fill:#3fc3d7;fill-rule:nonzero;"/><path d="M252.471,678.108c0.733,-4.079 6.462,-6.475 12.812,-5.345c6.354,1.137 10.909,5.37 10.175,9.462c-0.729,4.083 -6.47,6.471 -12.816,5.333c-6.35,-1.133 -10.905,-5.362 -10.171,-9.45Z" style="fill:#64cbe4;fill-rule:nonzero;"/></svg>