<?xml version="1.0" encoding="UTF-8" standalone="no"?><!DOCTYPE svg PUBLIC "-//W3C//DTD SVG 1.1//EN" "http://www.w3.org/Graphics/SVG/1.1/DTD/svg11.dtd"><svg width="100%" height="100%" viewBox="0 0 654 773" version="1.1" xmlns="http://www.w3.org/2000/svg" xmlns:xlink="http://www.w3.org/1999/xlink" xml:space="preserve" xmlns:serif="http://www.serif.com/" style="fill-rule:evenodd;clip-rule:evenodd;stroke-linejoin:round;stroke-miterlimit:2;"><path d="M394.3,538.788c0,-18.275 -14.367,-33.163 -32.421,-34.063l0,-0.05l-0.925,-0c-0.266,-0.008 -0.537,-0.038 -0.804,-0.038c-0.271,0 -0.537,0.03 -0.804,0.038c-44.196,-0 -90.146,-0 -134.367,-0.008l0,0.008c-2.962,-0.017 -5.933,-0.038 -9.025,-0.038c-18.867,0 -34.154,15.288 -34.154,34.151c0,18.858 15.287,34.15 34.154,34.15l145.925,-0l0,-0.088c18.054,-0.904 32.421,-15.792 32.421,-34.062Z" style="fill:#febc2b;fill-rule:nonzero;"/><path d="M375.287,508.158c-16.391,-8.087 -36.091,-1.783 -44.9,14.009l-0.033,-0.021l-0.408,0.825c-0.125,0.241 -0.271,0.462 -0.396,0.704c-0.121,0.25 -0.208,0.496 -0.317,0.742c-19.554,39.633 -39.887,80.841 -59.45,120.5c-1.333,2.645 -2.658,5.304 -4.025,8.079c-8.346,16.912 -1.4,37.387 15.509,45.733c16.921,8.346 37.396,1.396 45.745,-15.516l64.559,-130.867l-0.079,-0.042c7.175,-16.587 0.187,-36.058 -16.205,-44.146Z" style="fill:#ffc62c;fill-rule:nonzero;"/><path d="M294.867,378.838c-16.392,-8.088 -36.092,-1.788 -44.896,14.004l-0.038,-0.021l-0.412,0.829c-0.121,0.242 -0.267,0.463 -0.392,0.704c-0.121,0.246 -0.208,0.492 -0.321,0.738c-19.55,39.629 -39.883,80.837 -59.45,120.504l0.009,-0c-1.338,2.646 -2.667,5.3 -4.034,8.071c-8.346,16.912 -1.395,37.395 15.517,45.741c16.917,8.346 37.392,1.396 45.737,-15.525l64.563,-130.862l-0.079,-0.038c7.175,-16.587 0.187,-36.066 -16.204,-44.145Z" style="fill:#ffc62c;fill-rule:nonzero;"/><path d="M341.933,732.408l0.296,-0.196l0,-0.041c4.875,-3.833 8.783,-9.017 11.029,-15.279c6.042,-16.88 -2.033,-35.363 -18.1,-42.604l-0.016,-0.034l-0.392,-0.133c-0.708,-0.313 -1.408,-0.633 -2.138,-0.892c-0.733,-0.262 -1.479,-0.462 -2.22,-0.671l-59.946,-21.466c-0.709,-0.309 -1.409,-0.625 -2.142,-0.884c-17.758,-6.362 -37.308,2.888 -43.662,20.642c-3.013,8.408 -2.488,17.208 0.741,24.829l12.388,46.609c1.325,12.645 9.654,24.045 22.425,28.612c11.375,4.079 23.475,1.717 32.379,-5.15l45.696,-30.867c1.275,-0.741 2.496,-1.571 3.662,-2.475Z" style="fill:#febc2b;fill-rule:nonzero;"/><path d="M299.467,756.075c-5.734,2.596 -11.617,3.837 -17.075,3.871c-1.1,0.087 -2.367,0.187 -3.692,0.304c-18.942,-2.758 -34.425,-12.283 -41.383,-27.579c-7.092,-15.596 -3.834,-33.921 7.029,-50.246c2.196,-2.15 4.912,-4.038 8.058,-5.475c10.896,-4.954 22.629,-2.587 26.221,5.3c0.308,0.679 0.358,0.933 0.687,2.087c2.826,7.459 7.913,13.226 13.305,16.909c6.275,4.275 15.508,7.812 22.033,13.425c0.379,0.317 0.742,0.646 1.092,0.996c0.275,0.262 0.512,0.521 0.754,0.787c0.154,0.167 0.321,0.321 0.466,0.492c0.388,0.458 0.734,0.904 0.992,1.341l0,0.009c0.571,0.833 1.1,1.7 1.521,2.637c5.421,11.909 -3.537,27.646 -20.008,35.142Z" style="fill:#fdd82d;fill-rule:nonzero;"/><path d="M268.079,740.329c-7.6,-3.771 -13.017,-3.5 -14.891,-3.233c-6.759,1.312 -13.55,-1.384 -16.901,-6.958c-5.679,-15.013 -2.225,-32.263 8.059,-47.713c2.196,-2.15 4.912,-4.038 8.058,-5.475c10.896,-4.954 22.629,-2.587 26.221,5.3c0.308,0.679 0.358,0.933 0.687,2.087c2.826,7.459 7.913,13.226 13.305,16.909c6.275,4.275 15.508,7.812 22.033,13.425c0.379,0.317 0.742,0.646 1.092,0.996c0.275,0.262 0.512,0.521 0.754,0.787c0.154,0.167 0.321,0.321 0.466,0.492c0.109,0.129 0.175,0.254 0.271,0.375c-3.204,-0.75 -6.112,0.012 -9.041,1.433c-8.825,4.829 -13.442,11.521 -15.155,14.483c-0.166,0.317 -0.345,0.638 -0.529,0.946c-0.179,0.359 -0.283,0.571 -0.283,0.571c-0,0 -0.05,0.021 -0.075,0.029c-1.767,2.721 -4.354,5.03 -7.617,6.513c-5.666,2.579 -11.887,2.008 -16.454,-0.967Z" style="fill:#fce22c;fill-rule:nonzero;"/><path d="M252.708,692.067c7.309,-1.95 14.067,3.558 15.1,12.304c1.025,8.737 -4.071,17.408 -11.371,19.362c-7.308,1.955 -14.066,-3.554 -15.095,-12.296c-1.025,-8.741 4.062,-17.42 11.366,-19.37Z" style="fill:#fcf182;fill-rule:nonzero;"/><path d="M309,685.192c-4.963,6.512 -2.608,16.65 5.262,22.65c7.871,6 18.276,5.583 23.238,-0.93c4.967,-6.52 2.604,-16.654 -5.263,-22.658c-7.866,-5.996 -18.27,-5.579 -23.237,0.938Z" style="fill:#ffc62c;fill-rule:nonzero;"/><path d="M183.837,539.358c0,15.838 14.142,28.671 31.588,28.671c17.446,0 31.588,-12.833 31.588,-28.671c-0,-15.829 -14.142,-28.666 -31.588,-28.666c-17.446,-0 -31.588,12.837 -31.588,28.666Z" style="fill:#fdd82d;fill-rule:nonzero;"/><path d="M328.033,537.937c0,15.834 14.142,28.667 31.588,28.667c17.446,0 31.587,-12.833 31.587,-28.667c0,-15.833 -14.141,-28.666 -31.587,-28.666c-17.446,-0 -31.588,12.833 -31.588,28.666Z" style="fill:#fdd82d;fill-rule:nonzero;"/><path d="M248.346,407.971c-0,15.833 14.142,28.671 31.587,28.671c17.446,-0 31.588,-12.838 31.588,-28.671c-0,-15.834 -14.142,-28.663 -31.588,-28.663c-17.445,0 -31.587,12.829 -31.587,28.663Z" style="fill:#fdd82d;fill-rule:nonzero;"/><path d="M653.921,304.758c-0,80.367 -65.167,145.513 -145.525,145.513c-80.363,-0 -145.513,-65.146 -145.513,-145.513c0,-80.366 65.15,-145.512 145.513,-145.512c80.358,-0 145.525,65.146 145.525,145.512Z" style="fill:#e9e2d1;fill-rule:nonzero;"/><path d="M547.467,294.463c-2.679,-0 -5.309,0.179 -7.921,0.395l-0,-0.008c-1.609,0.15 -3.234,0.246 -4.884,0.246c-29.629,-0 -53.791,-23.138 -55.545,-52.329c0.02,-1.063 0.079,-2.113 0.079,-3.171c-0,-132.325 -107.271,-239.596 -239.596,-239.596c-132.325,0 -239.6,107.271 -239.6,239.596c0,132.321 107.275,239.6 239.6,239.6c1.375,-0 2.729,-0.084 4.1,-0.1l-0,0.1l301.504,-0l0,-0.121c0.754,0.025 1.492,0.121 2.263,0.121c50.995,-0 92.37,-41.354 92.37,-92.367c0,-51.012 -41.375,-92.366 -92.37,-92.366Z" style="fill:#f3f3f4;fill-rule:nonzero;"/><path d="M576.254,444.483c0,19.163 -15.542,34.713 -34.725,34.713l-314.746,-0c-19.171,-0 -34.704,-15.55 -34.704,-34.713c0,-19.166 15.533,-34.7 34.704,-34.7l314.746,0c19.183,0 34.725,15.534 34.725,34.7Z" style="fill:#edeae9;fill-rule:nonzero;"/><path d="M41.833,157.971c0,-20.988 5.517,-40.517 14.888,-57.154c1.604,-3.434 3.429,-7.421 5.304,-11.596c43.608,-53.638 107.146,-87.475 177.933,-87.475c72.167,-0 136.771,35.162 180.43,90.633c4.395,9.642 6.945,20.484 6.945,31.988c0,39.904 -29.57,72.233 -66.041,72.233c-3.142,0 -4.225,-0.204 -9.221,-0.775c-33.525,-1.738 -64.521,5.725 -88.046,17.021c-27.35,13.108 -57.033,36.271 -89.921,48.3c-1.887,0.712 -3.792,1.35 -5.712,1.937c-1.505,0.471 -2.925,0.846 -4.342,1.221c-0.921,0.225 -1.804,0.508 -2.729,0.713c-2.417,0.546 -4.734,0.962 -6.859,1.166c-0.012,0 -0.024,-0.008 -0.045,-0.021c-4.184,0.596 -8.421,1.001 -12.754,1.001c-55.13,-0 -99.83,-48.892 -99.83,-109.192Z" style="fill:#f9fafa;fill-rule:nonzero;"/><path d="M156.937,84.483c27.725,-17.845 36.13,-34.633 38.375,-40.712c6.763,-22.308 28.95,-39.196 56.155,-41.683c67.504,3.524 127.604,37.783 168.921,90.291c4.395,9.642 6.945,20.484 6.945,31.988c0,39.904 -29.57,72.233 -66.041,72.233c-3.142,0 -4.225,-0.204 -9.221,-0.775c-33.525,-1.738 -64.521,5.725 -88.046,17.021c-27.35,13.108 -57.033,36.271 -89.921,48.3c-1.887,0.712 -3.792,1.35 -5.712,1.937c-1.505,0.471 -2.925,0.846 -4.342,1.221c-0.921,0.225 -1.804,0.508 -2.729,0.713c-0.671,0.154 -1.25,0.187 -1.896,0.316c8.479,-8.691 10.629,-18.562 10.271,-29.391c-3.104,-33.442 -20.746,-56.684 -29.1,-65.984c-0.942,-0.929 -1.842,-1.896 -2.717,-2.891c-1.041,-1.042 -1.683,-1.642 -1.683,-1.642c-0,-0 0.008,-0.192 0.012,-0.283c-7.345,-9.109 -11.687,-20.15 -11.687,-32.092c-0,-20.742 13.042,-38.808 32.416,-48.567Z" style="fill:#fdfdfd;fill-rule:nonzero;"/><path d="M368.817,104.446c-5.267,24.862 -38.167,37.762 -73.496,28.808c-35.321,-8.937 -59.7,-36.341 -54.434,-61.187c5.259,-24.863 38.159,-37.767 73.488,-28.809c35.325,8.934 59.7,36.342 54.442,61.188Z" style="fill:#fff;fill-rule:nonzero;"/><path d="M16.146,558.05c15.65,31.25 53.671,43.9 84.921,28.242c31.25,-15.65 43.896,-53.675 28.245,-84.925c-29.862,-59.621 -21.404,-60.055 -84.92,-28.242c-31.25,15.654 -43.892,53.675 -28.246,84.925Z" style="fill:#1bb2e7;fill-rule:nonzero;"/><path d="M90.179,493.492c-0.55,-10.809 -11.579,-19.034 -24.641,-18.371c-13.063,0.658 -23.209,9.958 -22.663,20.762c0.55,10.809 11.579,19.038 24.642,18.38c13.058,-0.663 23.204,-9.963 22.662,-20.771Z" style="fill:#64cbe4;fill-rule:nonzero;"/><path d="M126.379,547.562c0.254,5.096 -0.967,9.913 -3.254,14.08c-0.388,0.854 -0.817,1.845 -1.262,2.883c-10.926,13.604 -27.375,22.675 -46.171,23.621c-19.159,0.966 -36.746,-6.696 -49.013,-19.571c-1.291,-2.288 -2.096,-4.879 -2.237,-7.683c-0.492,-9.675 6.966,-17.925 16.646,-18.413c0.833,-0.046 1.12,-0.012 2.458,0.071c8.925,-0.033 17.058,-2.267 23.166,-5.321c7.1,-3.55 14.696,-9.575 23.284,-12.933c0.487,-0.196 0.983,-0.375 1.491,-0.546c0.392,-0.138 0.763,-0.246 1.134,-0.358c0.246,-0.067 0.475,-0.146 0.721,-0.213c0.633,-0.158 1.241,-0.292 1.8,-0.375c0.008,0.009 0.008,0.009 0.012,0.009c1.108,-0.205 2.229,-0.355 3.375,-0.405c14.642,-0.75 27.104,10.521 27.85,25.154Z" style="fill:#33c4f0;fill-rule:nonzero;"/><path d="M96.533,566.929c-7.121,4.696 -9.141,8.871 -9.662,10.367c-1.517,5.492 -7.188,9.883 -14.358,10.841c-17.917,0.059 -34.259,-7.437 -45.842,-19.587c-1.283,-2.288 -2.092,-4.875 -2.229,-7.658c-0.492,-9.659 6.946,-17.888 16.604,-18.375c0.829,-0.038 1.121,-0.009 2.454,0.062c8.896,-0.025 17.013,-2.25 23.108,-5.296c7.079,-3.545 14.659,-9.55 23.217,-12.9c0.492,-0.196 0.987,-0.375 1.492,-0.546c0.391,-0.133 0.762,-0.241 1.133,-0.354c0.242,-0.07 0.471,-0.146 0.713,-0.204c0.179,-0.05 0.329,-0.067 0.5,-0.108c-2.142,2.217 -2.588,4.637 -2.359,7.25c1.229,8.058 6.188,13.45 8.513,15.596c0.262,0.208 0.512,0.429 0.754,0.658c0.287,0.242 0.462,0.375 0.462,0.375l0,0.067c2.063,2.104 3.346,4.725 3.492,7.616c0.254,5.021 -2.975,9.571 -7.992,12.196Z" style="fill:#3fc3d7;fill-rule:nonzero;"/><path d="M40.183,564.929c1.088,-6.087 9.642,-9.654 19.109,-7.958c9.462,1.691 16.254,8 15.166,14.091c-1.087,6.084 -9.646,9.651 -19.112,7.963c-9.463,-1.704 -16.254,-8.004 -15.163,-14.096Z" style="fill:#64cbe4;fill-rule:nonzero;"/><path d="M410.417,618.308c16.425,32.792 56.325,46.067 89.112,29.642c32.796,-16.429 46.067,-56.325 29.638,-89.117c-31.334,-62.571 -22.459,-63.021 -89.109,-29.633c-32.796,16.425 -46.062,56.321 -29.641,89.108Z" style="fill:#1bb2e7;fill-rule:nonzero;"/><path d="M489.129,550.212c-0.571,-11.345 -12.15,-19.974 -25.854,-19.283c-13.704,0.692 -24.354,10.446 -23.779,21.792c0.579,11.341 12.15,19.979 25.854,19.279c13.708,-0.687 24.358,-10.45 23.779,-21.788Z" style="fill:#64cbe4;fill-rule:nonzero;"/><path d="M526.087,607.313c0.271,5.345 -1.008,10.391 -3.412,14.77c-0.4,0.888 -0.858,1.934 -1.329,3.025c-11.459,14.275 -28.725,23.792 -48.442,24.788c-20.108,1.016 -38.558,-7.029 -51.433,-20.546c-1.35,-2.396 -2.2,-5.112 -2.354,-8.05c-0.509,-10.162 7.308,-18.817 17.475,-19.329c0.875,-0.042 1.175,-0.009 2.579,0.075c9.358,-0.033 17.9,-2.375 24.312,-5.583c7.45,-3.725 15.417,-10.042 24.425,-13.575c0.513,-0.2 1.038,-0.388 1.567,-0.567c0.412,-0.146 0.8,-0.263 1.192,-0.375c0.254,-0.067 0.495,-0.154 0.754,-0.221c0.662,-0.171 1.3,-0.308 1.896,-0.392l0.012,0c1.159,-0.208 2.333,-0.366 3.538,-0.425c15.362,-0.779 28.446,11.038 29.22,26.405Z" style="fill:#33c4f0;fill-rule:nonzero;"/><path d="M494.775,627.633c-7.475,4.921 -9.596,9.305 -10.142,10.879c-1.591,5.763 -7.541,10.363 -15.066,11.375c-18.805,0.059 -35.946,-7.804 -48.109,-20.562c-1.341,-2.392 -2.191,-5.108 -2.337,-8.033c-0.513,-10.134 7.287,-18.767 17.425,-19.279c0.871,-0.042 1.175,-0.009 2.575,0.074c9.333,-0.033 17.85,-2.37 24.246,-5.566c7.433,-3.721 15.383,-10.021 24.366,-13.538c0.513,-0.208 1.034,-0.391 1.563,-0.566c0.417,-0.146 0.8,-0.259 1.191,-0.375c0.25,-0.071 0.492,-0.159 0.75,-0.221c0.184,-0.046 0.346,-0.063 0.521,-0.109c-2.241,2.326 -2.708,4.863 -2.479,7.613c1.296,8.454 6.5,14.112 8.938,16.358c0.279,0.225 0.537,0.454 0.791,0.692c0.3,0.254 0.492,0.4 0.492,0.4c0,-0 -0.004,0.046 -0.004,0.062c2.162,2.221 3.508,4.967 3.662,7.992c0.271,5.275 -3.125,10.046 -8.383,12.804Z" style="fill:#3fc3d7;fill-rule:nonzero;"/><path d="M435.637,625.537c1.146,-6.395 10.125,-10.133 20.055,-8.354c9.925,1.775 17.054,8.396 15.912,14.788c-1.137,6.383 -10.121,10.121 -20.05,8.346c-9.933,-1.771 -17.058,-8.396 -15.917,-14.78Z" style="fill:#64cbe4;fill-rule:nonzero;"/><path d="M90.137,707.871c13.175,26.308 45.192,36.954 71.496,23.771c26.309,-13.167 36.955,-45.18 23.775,-71.488c-25.137,-50.196 -18.016,-50.562 -71.491,-23.775c-26.305,13.175 -36.954,45.188 -23.78,71.492Z" style="fill:#1bb2e7;fill-rule:nonzero;"/><path d="M149.167,654.688c-0.459,-9.109 -9.746,-16.03 -20.738,-15.48c-11,0.563 -19.542,8.388 -19.079,17.484c0.458,9.104 9.742,16.033 20.742,15.475c11,-0.559 19.537,-8.388 19.075,-17.479Z" style="fill:#64cbe4;fill-rule:nonzero;"/><path d="M182.937,699.046c0.213,4.292 -0.816,8.346 -2.737,11.846c-0.325,0.725 -0.692,1.558 -1.063,2.433c-9.191,11.454 -23.045,19.092 -38.87,19.879c-16.13,0.829 -30.93,-5.637 -41.263,-16.479c-1.083,-1.921 -1.767,-4.1 -1.883,-6.458c-0.409,-8.146 5.866,-15.088 14.012,-15.505c0.7,-0.037 0.95,-0.008 2.067,0.063c7.517,-0.029 14.367,-1.904 19.508,-4.483c5.979,-2.988 12.375,-8.054 19.6,-10.888c0.413,-0.158 0.829,-0.317 1.254,-0.454c0.338,-0.121 0.646,-0.213 0.959,-0.304c0.2,-0.058 0.4,-0.129 0.604,-0.179c0.533,-0.138 1.046,-0.246 1.517,-0.317c0.008,0.008 0.008,0.008 0.012,0.008c0.933,-0.171 1.875,-0.3 2.842,-0.35c12.325,-0.616 22.817,8.863 23.441,21.188Z" style="fill:#33c4f0;fill-rule:nonzero;"/><path d="M157.813,715.35c-5.996,3.95 -7.696,7.462 -8.134,8.725c-1.275,4.629 -6.05,8.317 -12.087,9.125c-15.084,0.05 -28.838,-6.258 -38.596,-16.492c-1.079,-1.916 -1.759,-4.091 -1.875,-6.441c-0.409,-8.134 5.846,-15.059 13.979,-15.467c0.7,-0.038 0.946,-0.004 2.067,0.05c7.487,-0.021 14.32,-1.896 19.454,-4.458c5.962,-2.988 12.337,-8.042 19.546,-10.855c0.416,-0.17 0.829,-0.32 1.254,-0.466c0.333,-0.113 0.641,-0.213 0.954,-0.292c0.2,-0.067 0.396,-0.129 0.604,-0.179c0.146,-0.042 0.279,-0.058 0.417,-0.087c-1.796,1.862 -2.179,3.904 -1.984,6.104c1.038,6.783 5.209,11.325 7.167,13.125c0.221,0.179 0.425,0.366 0.633,0.554c0.242,0.2 0.396,0.316 0.396,0.316l0,0.055c1.734,1.775 2.809,3.979 2.938,6.412c0.208,4.225 -2.513,8.058 -6.734,10.271Z" style="fill:#3fc3d7;fill-rule:nonzero;"/><path d="M110.375,713.667c0.917,-5.121 8.117,-8.125 16.083,-6.705c7.967,1.421 13.688,6.738 12.767,11.863c-0.908,5.129 -8.113,8.125 -16.083,6.7c-7.967,-1.425 -13.684,-6.738 -12.767,-11.858Z" style="fill:#64cbe4;fill-rule:nonzero;"/></svg>