<?xml version="1.0" encoding="iso-8859-1"?>
<!-- Generator: Adobe Illustrator 16.0.0, SVG Export Plug-In . SVG Version: 6.00 Build 0)  -->
<!DOCTYPE svg PUBLIC "-//W3C//DTD SVG 1.1//EN" "http://www.w3.org/Graphics/SVG/1.1/DTD/svg11.dtd">
<svg version="1.1" id="Capa_1" xmlns="http://www.w3.org/2000/svg" xmlns:xlink="http://www.w3.org/1999/xlink" x="0px" y="0px"
	 width="654.583px" height="654.584px" viewBox="0 0 654.583 654.584" style="enable-background:new 0 0 654.583 654.584;"
	 xml:space="preserve">
<g>
	<path d="M487.106,654.584h-81.895c-8.601,0-15.581-6.98-15.581-15.581V495.437c0-18.572-15.083-33.655-33.655-33.655h-57.463
		c-18.542,0-33.625,15.083-33.625,33.655v143.566c0,8.601-6.98,15.581-15.581,15.581h-82.238c-35.744,0-64.818-29.106-64.818-64.818
		V364.804c-18.822,0.219-49.144,1.559-49.237,1.559c-4.301,0.561-8.757-1.402-11.873-4.55
		c-26.333-26.426-26.488-78.031-0.28-104.239L279.378,19.118c25.429-25.491,69.928-25.491,95.388,0l47.491,47.461v-7.105
		c0-31.225,25.397-56.591,56.622-56.591c31.193,0,56.592,25.366,56.592,56.591v102.868c8.102,12.029,44.998,56.747,78.623,96.167
		c25.553,25.459,25.771,77.127-0.436,103.335c-3.148,3.147-7.449,5.11-11.842,4.55c-0.094,0-30.322-0.936-49.955-1.559v224.962
		C551.924,625.509,522.85,654.584,487.106,654.584z M420.792,623.421h66.313c18.573,0,33.656-15.082,33.656-33.655V350.812
		c0-17.17,18.168-17.17,32.783-17.17c13.586,0,31.785,0.748,42.039,1.215c9.846-15.55,8.352-42.599-4.301-55.251
		c-86.944-101.776-86.944-106.7-86.944-113.431V59.474c0-14.023-11.405-25.428-25.429-25.428c-14.055,0-25.46,11.405-25.46,25.428
		v44.75c0,6.295-3.802,11.998-9.629,14.397c-5.796,2.431-12.496,1.091-16.983-3.365l-74.104-74.073
		c-13.681-13.681-37.644-13.681-51.293,0L62.892,279.605c-12.777,12.777-13.961,39.483-3.677,55.251
		c10.19-0.467,28.14-1.215,41.571-1.215c14.521,0,32.596,0,32.596,17.17v238.954c0,18.573,15.083,33.655,33.656,33.655h66.657
		V495.437c0-35.712,29.074-64.817,64.787-64.817h57.463c35.743,0,64.817,29.105,64.817,64.817v127.984H420.792z"/>
</g>
<g>
</g>
<g>
</g>
<g>
</g>
<g>
</g>
<g>
</g>
<g>
</g>
<g>
</g>
<g>
</g>
<g>
</g>
<g>
</g>
<g>
</g>
<g>
</g>
<g>
</g>
<g>
</g>
<g>
</g>
</svg>
